<?xml version="1.0" encoding="UTF-8" standalone="no"?>
<!-- Created with Inkscape (http://www.inkscape.org/) -->

<svg
   width="302.97565mm"
   height="170.22691mm"
   viewBox="0 0 302.97565 170.22691"
   version="1.1"
   id="svg6312"
   inkscape:version="1.2.2 (b0a8486, 2022-12-01)"
   sodipodi:docname="side-effects.svg"
   xmlns:inkscape="http://www.inkscape.org/namespaces/inkscape"
   xmlns:sodipodi="http://sodipodi.sourceforge.net/DTD/sodipodi-0.dtd"
   xmlns="http://www.w3.org/2000/svg"
   xmlns:svg="http://www.w3.org/2000/svg">
  <sodipodi:namedview
     id="namedview6314"
     pagecolor="#ffffff"
     bordercolor="#666666"
     borderopacity="1.0"
     inkscape:showpageshadow="2"
     inkscape:pageopacity="0.0"
     inkscape:pagecheckerboard="0"
     inkscape:deskcolor="#d1d1d1"
     inkscape:document-units="mm"
     showgrid="false"
     inkscape:zoom="0.45417822"
     inkscape:cx="459.07089"
     inkscape:cy="121.09784"
     inkscape:window-width="1600"
     inkscape:window-height="871"
     inkscape:window-x="0"
     inkscape:window-y="0"
     inkscape:window-maximized="1"
     inkscape:current-layer="layer1" />
  <defs
     id="defs6309">
    <clipPath
       clipPathUnits="userSpaceOnUse"
       id="clipPath554">
      <path
         d="M 0,500 H 750 V 0 H 0 Z"
         id="path552" />
    </clipPath>
    <clipPath
       clipPathUnits="userSpaceOnUse"
       id="clipPath566">
      <path
         d="m 450.326,102.215 h 96.525 V 66.7641 h -96.525 z"
         id="path564" />
    </clipPath>
    <clipPath
       clipPathUnits="userSpaceOnUse"
       id="clipPath682">
      <path
         d="M 236.965,102.744 H 450.447 V 65.0841 H 236.965 Z"
         id="path680" />
    </clipPath>
    <clipPath
       clipPathUnits="userSpaceOnUse"
       id="clipPath942">
      <path
         d="m 422.259,109.291 h 19.423 v -3.124 h -19.423 z"
         id="path940" />
    </clipPath>
    <clipPath
       clipPathUnits="userSpaceOnUse"
       id="clipPath958">
      <path
         d="m 246.128,108.588 h 16.364 v -2.421 h -16.364 z"
         id="path956" />
    </clipPath>
    <clipPath
       clipPathUnits="userSpaceOnUse"
       id="clipPath974">
      <path
         d="m 313.15,108.839 h 12.573 v -2.672 H 313.15 Z"
         id="path972" />
    </clipPath>
    <clipPath
       clipPathUnits="userSpaceOnUse"
       id="clipPath990">
      <path
         d="m 354.439,109.002 h 12.831 v -2.835 h -12.831 z"
         id="path988" />
    </clipPath>
    <clipPath
       clipPathUnits="userSpaceOnUse"
       id="clipPath1006">
      <path
         d="m 368.817,109.051 h 10.85 v -2.884 h -10.85 z"
         id="path1004" />
    </clipPath>
    <clipPath
       clipPathUnits="userSpaceOnUse"
       id="clipPath1022">
      <path
         d="m 327.319,108.89 h 11.465 v -2.723 h -11.465 z"
         id="path1020" />
    </clipPath>
    <clipPath
       clipPathUnits="userSpaceOnUse"
       id="clipPath1038">
      <path
         d="m 340.379,108.946 h 12.464 v -2.779 h -12.464 z"
         id="path1036" />
    </clipPath>
    <clipPath
       clipPathUnits="userSpaceOnUse"
       id="clipPath1054">
      <path
         d="m 409.246,109.21 h 11.659 v -3.043 h -11.659 z"
         id="path1052" />
    </clipPath>
    <clipPath
       clipPathUnits="userSpaceOnUse"
       id="clipPath1070">
      <path
         d="m 381.22,108.953 h 11.992 v -2.935 H 381.22 Z"
         id="path1068" />
    </clipPath>
    <clipPath
       clipPathUnits="userSpaceOnUse"
       id="clipPath1086">
      <path
         d="m 394.73,109.159 h 13.086 v -2.992 H 394.73 Z"
         id="path1084" />
    </clipPath>
    <clipPath
       clipPathUnits="userSpaceOnUse"
       id="clipPath1102">
      <path
         d="m 288.483,108.728 h 9.618 v -2.561 h -9.618 z"
         id="path1100" />
    </clipPath>
    <clipPath
       clipPathUnits="userSpaceOnUse"
       id="clipPath1118">
      <path
         d="m 275.947,108.684 h 10.999 v -2.517 h -10.999 z"
         id="path1116" />
    </clipPath>
    <clipPath
       clipPathUnits="userSpaceOnUse"
       id="clipPath1134">
      <path
         d="m 264.002,108.635 h 10.427 v -2.468 h -10.427 z"
         id="path1132" />
    </clipPath>
    <clipPath
       clipPathUnits="userSpaceOnUse"
       id="clipPath1150">
      <path
         d="m 299.667,108.783 h 11.887 v -2.616 h -11.887 z"
         id="path1148" />
    </clipPath>
    <clipPath
       clipPathUnits="userSpaceOnUse"
       id="clipPath1166">
      <path
         d="M 220.589,63.4421 H 556.707 V 51.2989 H 220.589 Z"
         id="path1164" />
    </clipPath>
    <clipPath
       clipPathUnits="userSpaceOnUse"
       id="clipPath1182">
      <path
         d="M 0,500 H 750 V 0 H 0 Z"
         id="path1180" />
    </clipPath>
    <clipPath
       clipPathUnits="userSpaceOnUse"
       id="clipPath1340">
      <path
         d="M 0,500 H 750 V 0 H 0 Z"
         id="path1338" />
    </clipPath>
    <clipPath
       clipPathUnits="userSpaceOnUse"
       id="clipPath1356">
      <path
         d="M 234.539,383.337 H 555.146 V 196.208 H 234.539 Z"
         id="path1354" />
    </clipPath>
    <clipPath
       clipPathUnits="userSpaceOnUse"
       id="clipPath1372">
      <path
         d="m 348.526,161.337 h 92.632 v -10.66 h -92.632 z"
         id="path1370" />
    </clipPath>
    <clipPath
       clipPathUnits="userSpaceOnUse"
       id="clipPath1388">
      <path
         d="M 234.539,373.163 H 555.146 V 229.376 H 234.539 Z"
         id="path1386" />
    </clipPath>
  </defs>
  <g
     inkscape:label="Layer 1"
     inkscape:groupmode="layer"
     id="layer1"
     transform="translate(56.332489,11.790298)">
    <g
       id="g548"
       transform="matrix(0.20221236,0,0,-0.39339004,-89.412645,49.491379)">
      <g
         id="g550"
         clip-path="url(#clipPath554)">
        <g
           id="g556"
           transform="translate(229.8466,51.4201)">
          <path
             d="m 0,0 c -5.871,0.012 -10.25,4.658 -9.064,9.616 3.511,14.677 10.279,41.27 12.52,50.052 0.433,1.695 2.176,2.898 4.19,2.894 l 300.27,-0.502 c 2.602,-0.005 4.861,-1.548 5.461,-3.732 l 13.239,-48.199 c 1.405,-5.115 -3.167,-9.995 -9.261,-9.877 -20.968,0.403 -63.166,1.246 -75.8,1.731 C 224.518,2.636 176.813,0.35 154.476,0.024 135.974,-0.247 34.355,-0.069 0,0"
             style="fill:#1a2e35;fill-opacity:1;fill-rule:nonzero;stroke:none"
             id="path558" />
        </g>
        <g
           id="g560">
          <g
             id="g562" />
          <g
             id="g674">
            <g
               clip-path="url(#clipPath566)"
               opacity="0.199997"
               id="g672">
              <g
                 transform="translate(516.9865,84.0046)"
                 id="g570">
                <path
                   d="m 0,0 -0.689,3.141 c -0.157,0.716 -0.882,1.234 -1.727,1.234 h -8.231 c -1.08,0 -1.904,-0.831 -1.737,-1.75 l 0.571,-3.141 c 0.134,-0.738 0.871,-1.281 1.737,-1.281 h 8.349 C -0.625,-1.797 0.205,-0.933 0,0"
                   style="fill:#ffffff;fill-opacity:1;fill-rule:nonzero;stroke:none"
                   id="path568" />
              </g>
              <g
                 transform="translate(503.4219,83.9578)"
                 id="g574">
                <path
                   d="M 0,0 -0.571,3.141 C -0.705,3.879 -1.442,4.422 -2.307,4.422 H -9.45 c -1.051,0 -1.867,-0.79 -1.746,-1.69 l 0.422,-3.141 c 0.102,-0.764 0.853,-1.341 1.746,-1.341 h 7.292 C -0.657,-1.75 0.167,-0.919 0,0"
                   style="fill:#ffffff;fill-opacity:1;fill-rule:nonzero;stroke:none"
                   id="path572" />
              </g>
              <g
                 transform="translate(502.4944,80.7884)"
                 id="g578">
                <path
                   d="M 0,0 H -7.503 C -8.554,0 -9.37,-0.79 -9.249,-1.69 l 0.421,-3.141 c 0.103,-0.765 0.854,-1.342 1.746,-1.342 h 7.653 c 1.079,0 1.904,0.831 1.736,1.751 L 1.736,-1.281 C 1.602,-0.544 0.866,0 0,0"
                   style="fill:#ffffff;fill-opacity:1;fill-rule:nonzero;stroke:none"
                   id="path576" />
              </g>
              <g
                 transform="translate(533.2871,72.0479)"
                 id="g582">
                <path
                   d="m 0,0 c -0.195,0.675 -0.898,1.149 -1.705,1.149 h -11.576 l -0.628,-0.103 -0.022,0.103 h -13.368 l -0.595,-0.081 -0.015,0.081 h -9.368 c -1.051,0 -1.867,-0.79 -1.746,-1.69 l 0.456,-3.401 c 0.104,-0.772 0.868,-1.352 1.769,-1.342 l 35.985,0.394 c 1.134,0.013 1.958,0.934 1.683,1.883 z"
                   style="fill:#ffffff;fill-opacity:1;fill-rule:nonzero;stroke:none"
                   id="path580" />
              </g>
              <g
                 transform="translate(493.3748,89.799)"
                 id="g586">
                <path
                   d="M 0,0 H 6.931 C 8.01,0 8.834,0.831 8.667,1.75 L 8.244,4.077 C 8.11,4.814 7.373,5.358 6.508,5.358 h -6.82 c -1.051,0 -1.867,-0.79 -1.746,-1.69 L -1.746,1.341 C -1.643,0.577 -0.892,0 0,0"
                   style="fill:#ffffff;fill-opacity:1;fill-rule:nonzero;stroke:none"
                   id="path584" />
              </g>
              <g
                 transform="translate(505.5301,89.799)"
                 id="g590">
                <path
                   d="M 0,0 H 8.065 C 9.167,0 9.997,0.864 9.792,1.797 L 9.282,4.124 C 9.125,4.839 8.4,5.358 7.555,5.358 h -7.978 c -1.079,0 -1.904,-0.831 -1.736,-1.751 L -1.736,1.281 C -1.602,0.543 -0.866,0 0,0"
                   style="fill:#ffffff;fill-opacity:1;fill-rule:nonzero;stroke:none"
                   id="path588" />
              </g>
              <g
                 transform="translate(516.9647,97.1914)"
                 id="g594">
                <path
                   d="M 0,0 H 6.579 C 7.722,0 8.561,0.926 8.284,1.882 L 7.866,3.327 C 7.671,4.002 6.968,4.476 6.161,4.476 h -6.478 c -1.101,0 -1.931,-0.864 -1.727,-1.797 L -1.727,1.234 C -1.57,0.518 -0.845,0 0,0"
                   style="fill:#ffffff;fill-opacity:1;fill-rule:nonzero;stroke:none"
                   id="path592" />
              </g>
              <g
                 transform="translate(527.6065,91.6814)"
                 id="g598">
                <path
                   d="M 0,0 -0.673,2.327 C -0.869,3.002 -1.572,3.475 -2.378,3.475 H -9.27 c -1.101,0 -1.931,-0.863 -1.727,-1.797 l 0.511,-2.326 c 0.157,-0.716 0.882,-1.234 1.727,-1.234 h 7.054 C -0.562,-1.882 0.277,-0.956 0,0"
                   style="fill:#ffffff;fill-opacity:1;fill-rule:nonzero;stroke:none"
                   id="path596" />
              </g>
              <g
                 transform="translate(503.9015,97.1914)"
                 id="g602">
                <path
                   d="M 0,0 H 7.811 C 8.913,0 9.743,0.864 9.538,1.797 L 9.221,3.242 C 9.065,3.957 8.339,4.476 7.494,4.476 h -7.756 c -1.08,0 -1.904,-0.831 -1.737,-1.751 L -1.736,1.281 C -1.602,0.544 -0.866,0 0,0"
                   style="fill:#ffffff;fill-opacity:1;fill-rule:nonzero;stroke:none"
                   id="path600" />
              </g>
              <g
                 transform="translate(528.8638,97.1914)"
                 id="g606">
                <path
                   d="M 0,0 H 5.604 C 6.782,0 7.627,0.98 7.287,1.953 L 6.783,3.397 C 6.559,4.037 5.875,4.476 5.1,4.476 H -0.418 C -1.561,4.476 -2.4,3.55 -2.123,2.593 L -1.705,1.149 C -1.51,0.474 -0.807,0 0,0"
                   style="fill:#ffffff;fill-opacity:1;fill-rule:nonzero;stroke:none"
                   id="path604" />
              </g>
              <g
                 transform="translate(536.3395,67.3638)"
                 id="g610">
                <path
                   d="m 0,0 8.775,-0.067 c 1.169,0.013 1.998,0.987 1.661,1.952 L 4.13,19.938 c -0.224,0.64 -0.908,1.078 -1.683,1.078 h -6.278 c -1.143,0 -1.982,-0.926 -1.705,-1.882 z"
                   style="fill:#ffffff;fill-opacity:1;fill-rule:nonzero;stroke:none"
                   id="path608" />
              </g>
              <g
                 transform="translate(500.4133,98.9417)"
                 id="g614">
                <path
                   d="m 0,0 -0.263,1.444 c -0.134,0.738 -0.87,1.281 -1.736,1.281 h -6.54 c -1.05,0 -1.866,-0.789 -1.745,-1.689 l 0.193,-1.445 c 0.103,-0.764 0.854,-1.341 1.746,-1.341 h 6.609 C -0.657,-1.75 0.167,-0.919 0,0"
                   style="fill:#ffffff;fill-opacity:1;fill-rule:nonzero;stroke:none"
                   id="path612" />
              </g>
              <g
                 transform="translate(453.187,90.9623)"
                 id="g618">
                <path
                   d="M 0,0 H 6.931 C 8.01,0 8.834,0.831 8.667,1.75 L 8.244,4.077 C 8.11,4.814 7.373,5.358 6.508,5.358 h -6.82 c -1.051,0 -1.867,-0.79 -1.746,-1.69 L -1.746,1.341 C -1.643,0.577 -0.893,0 0,0"
                   style="fill:#ffffff;fill-opacity:1;fill-rule:nonzero;stroke:none"
                   id="path616" />
              </g>
              <g
                 transform="translate(465.3423,90.9623)"
                 id="g622">
                <path
                   d="M 0,0 H 8.065 C 9.167,0 9.997,0.864 9.792,1.797 L 9.282,4.124 C 9.125,4.839 8.4,5.358 7.555,5.358 h -7.978 c -1.079,0 -1.903,-0.831 -1.736,-1.751 L -1.736,1.281 C -1.602,0.543 -0.866,0 0,0"
                   style="fill:#ffffff;fill-opacity:1;fill-rule:nonzero;stroke:none"
                   id="path620" />
              </g>
              <g
                 transform="translate(477.1735,97.7392)"
                 id="g626">
                <path
                   d="M 0,0 H 6.579 C 7.722,0 8.561,0.926 8.284,1.882 L 7.867,3.327 C 7.671,4.002 6.968,4.476 6.161,4.476 h -6.478 c -1.101,0 -1.931,-0.864 -1.727,-1.797 L -1.727,1.234 C -1.57,0.518 -0.845,0 0,0"
                   style="fill:#ffffff;fill-opacity:1;fill-rule:nonzero;stroke:none"
                   id="path624" />
              </g>
              <g
                 transform="translate(487.4187,92.8447)"
                 id="g630">
                <path
                   d="m 0,0 -0.673,2.327 c -0.195,0.675 -0.899,1.148 -1.706,1.148 h -6.89 c -1.102,0 -1.932,-0.864 -1.727,-1.797 l 0.51,-2.326 c 0.157,-0.716 0.882,-1.234 1.727,-1.234 h 7.054 C -0.562,-1.882 0.277,-0.956 0,0"
                   style="fill:#ffffff;fill-opacity:1;fill-rule:nonzero;stroke:none"
                   id="path628" />
              </g>
              <g
                 transform="translate(464.1103,97.7392)"
                 id="g634">
                <path
                   d="M 0,0 H 7.811 C 8.913,0 9.743,0.864 9.538,1.797 L 9.221,3.242 C 9.065,3.957 8.339,4.476 7.494,4.476 h -7.757 c -1.079,0 -1.903,-0.831 -1.736,-1.751 L -1.736,1.281 C -1.602,0.543 -0.866,0 0,0"
                   style="fill:#ffffff;fill-opacity:1;fill-rule:nonzero;stroke:none"
                   id="path632" />
              </g>
              <g
                 transform="translate(460.6221,99.4894)"
                 id="g638">
                <path
                   d="m 0,0 -0.263,1.444 c -0.134,0.738 -0.87,1.281 -1.736,1.281 h -6.54 c -1.05,0 -1.866,-0.789 -1.745,-1.689 l 0.193,-1.445 c 0.103,-0.764 0.854,-1.341 1.746,-1.341 h 6.609 C -0.657,-1.75 0.167,-0.919 0,0"
                   style="fill:#ffffff;fill-opacity:1;fill-rule:nonzero;stroke:none"
                   id="path636" />
              </g>
              <g
                 transform="translate(531.9995,76.4982)"
                 id="g642">
                <path
                   d="M 0,0 -0.909,3.142 C -1.104,3.816 -1.807,4.29 -2.614,4.29 h -7.898 c -1.102,0 -1.932,-0.864 -1.727,-1.797 l 0.689,-3.141 c 0.157,-0.716 0.882,-1.234 1.727,-1.234 h 8.118 C -0.562,-1.882 0.277,-0.956 0,0"
                   style="fill:#ffffff;fill-opacity:1;fill-rule:nonzero;stroke:none"
                   id="path640" />
              </g>
              <g
                 transform="translate(529.803,84.09)"
                 id="g646">
                <path
                   d="M 0,0 -0.909,3.141 C -1.104,3.816 -1.807,4.29 -2.614,4.29 H -9.98 c -1.102,0 -1.932,-0.864 -1.727,-1.797 l 0.689,-3.141 c 0.156,-0.716 0.882,-1.234 1.726,-1.234 h 7.587 C -0.562,-1.882 0.277,-0.956 0,0"
                   style="fill:#ffffff;fill-opacity:1;fill-rule:nonzero;stroke:none"
                   id="path644" />
              </g>
              <g
                 transform="translate(538.9147,91.7517)"
                 id="g650">
                <path
                   d="m 0,0 -0.889,2.49 c -0.194,0.544 -0.777,0.915 -1.437,0.915 h -6.041 c -1.143,0 -1.982,-0.926 -1.705,-1.882 l 0.673,-2.327 c 0.195,-0.675 0.899,-1.149 1.706,-1.149 h 6.01 C -0.505,-1.953 0.34,-0.973 0,0"
                   style="fill:#ffffff;fill-opacity:1;fill-rule:nonzero;stroke:none"
                   id="path648" />
              </g>
              <g
                 transform="translate(518.651,76.4128)"
                 id="g654">
                <path
                   d="m 0,0 -0.689,3.142 c -0.157,0.715 -0.882,1.234 -1.727,1.234 h -8.516 c -1.079,0 -1.903,-0.831 -1.736,-1.751 l 0.571,-3.141 c 0.134,-0.738 0.871,-1.281 1.736,-1.281 h 8.634 C -0.625,-1.797 0.205,-0.933 0,0"
                   style="fill:#ffffff;fill-opacity:1;fill-rule:nonzero;stroke:none"
                   id="path652" />
              </g>
              <g
                 transform="translate(476.5723,76.2503)"
                 id="g658">
                <path
                   d="m 0,0 -0.689,3.141 c -0.157,0.716 -0.882,1.234 -1.727,1.234 h -8.231 c -1.08,0 -1.904,-0.831 -1.737,-1.75 l 0.571,-3.141 c 0.134,-0.738 0.871,-1.281 1.737,-1.281 h 8.349 C -0.626,-1.797 0.205,-0.933 0,0"
                   style="fill:#ffffff;fill-opacity:1;fill-rule:nonzero;stroke:none"
                   id="path656" />
              </g>
              <g
                 transform="translate(462.0802,73.034)"
                 id="g662">
                <path
                   d="m 0,0 h -7.504 c -1.05,0 -1.866,-0.79 -1.745,-1.69 l 0.421,-3.141 c 0.103,-0.765 0.854,-1.342 1.746,-1.342 h 7.653 c 1.079,0 1.904,0.831 1.736,1.751 L 1.736,-1.281 C 1.602,-0.543 0.866,0 0,0"
                   style="fill:#ffffff;fill-opacity:1;fill-rule:nonzero;stroke:none"
                   id="path660" />
              </g>
              <g
                 transform="translate(491.5853,68.7438)"
                 id="g666">
                <path
                   d="M 0,0 -0.909,3.141 C -1.104,3.816 -1.807,4.29 -2.614,4.29 h -7.898 c -1.102,0 -1.932,-0.864 -1.727,-1.797 l 0.689,-3.141 c 0.157,-0.716 0.882,-1.234 1.727,-1.234 h 8.118 C -0.562,-1.882 0.277,-0.956 0,0"
                   style="fill:#ffffff;fill-opacity:1;fill-rule:nonzero;stroke:none"
                   id="path664" />
              </g>
              <g
                 transform="translate(478.2368,68.6584)"
                 id="g670">
                <path
                   d="m 0,0 -0.689,3.142 c -0.157,0.715 -0.882,1.234 -1.727,1.234 h -8.516 c -1.079,0 -1.903,-0.831 -1.736,-1.751 l 0.571,-3.141 c 0.134,-0.738 0.871,-1.281 1.736,-1.281 h 8.634 C -0.625,-1.797 0.205,-0.933 0,0"
                   style="fill:#ffffff;fill-opacity:1;fill-rule:nonzero;stroke:none"
                   id="path668" />
              </g>
            </g>
          </g>
        </g>
        <g
           id="g676">
          <g
             id="g678" />
          <g
             id="g934">
            <g
               clip-path="url(#clipPath682)"
               opacity="0.199997"
               id="g932">
              <g
                 transform="translate(285.0079,77.5546)"
                 id="g686">
                <path
                   d="m 0,0 0.254,3.532 c 0.055,0.76 -0.646,1.402 -1.528,1.402 h -9.038 c -0.787,0 -1.445,-0.514 -1.524,-1.188 l -0.411,-3.532 c -0.091,-0.778 0.617,-1.453 1.523,-1.453 h 9.196 C -0.719,-1.239 -0.05,-0.696 0,0"
                   style="fill:#ffffff;fill-opacity:1;fill-rule:nonzero;stroke:none"
                   id="path684" />
              </g>
              <g
                 transform="translate(289.2881,91.4996)"
                 id="g690">
                <path
                   d="M 0,0 H 7.193 C 8.028,0 8.71,0.578 8.724,1.298 L 8.777,4.015 C 8.791,4.753 8.102,5.357 7.246,5.357 H 0.195 c -0.809,0 -1.478,-0.542 -1.528,-1.238 L -1.528,1.402 C -1.583,0.642 -0.883,0 0,0"
                   style="fill:#ffffff;fill-opacity:1;fill-rule:nonzero;stroke:none"
                   id="path688" />
              </g>
              <g
                 transform="translate(276.0546,91.4996)"
                 id="g694">
                <path
                   d="m 0,0 h 8.517 c 0.808,0 1.478,0.542 1.528,1.239 L 10.24,3.955 C 10.294,4.715 9.595,5.357 8.712,5.357 H 0.317 c -0.787,0 -1.445,-0.513 -1.524,-1.188 L -1.523,1.452 C -1.614,0.675 -0.906,0 0,0"
                   style="fill:#ffffff;fill-opacity:1;fill-rule:nonzero;stroke:none"
                   id="path692" />
              </g>
              <g
                 transform="translate(300.4696,91.4996)"
                 id="g698">
                <path
                   d="m 0,0 h 10.748 c 0.454,0 0.822,0.318 0.822,0.71 v 3.938 c 0,0.392 -0.368,0.709 -0.822,0.709 H 0.077 c -0.449,0 -0.815,-0.31 -0.823,-0.697 L -0.823,0.722 C -0.831,0.325 -0.46,0 0,0"
                   style="fill:#ffffff;fill-opacity:1;fill-rule:nonzero;stroke:none"
                   id="path696" />
              </g>
              <g
                 transform="translate(342.5939,91.4996)"
                 id="g702">
                <path
                   d="m 0,0 h 11.21 c 0.455,0 0.823,0.318 0.823,0.71 v 3.938 c 0,0.392 -0.368,0.709 -0.823,0.709 L 0,5.357 c -0.454,0 -0.823,-0.317 -0.823,-0.709 V 0.71 C -0.823,0.318 -0.454,0 0,0"
                   style="fill:#ffffff;fill-opacity:1;fill-rule:nonzero;stroke:none"
                   id="path700" />
              </g>
              <g
                 transform="translate(329.1232,91.4996)"
                 id="g706">
                <path
                   d="m 0,0 h 10.179 c 0.454,0 0.823,0.318 0.823,0.71 v 3.938 c 0,0.392 -0.369,0.709 -0.823,0.709 L 0,5.357 c -0.454,0 -0.823,-0.317 -0.823,-0.709 V 0.71 C -0.823,0.318 -0.454,0 0,0"
                   style="fill:#ffffff;fill-opacity:1;fill-rule:nonzero;stroke:none"
                   id="path704" />
              </g>
              <g
                 transform="translate(357.0957,91.4996)"
                 id="g710">
                <path
                   d="m 0,0 h 11.407 c 0.449,0 0.816,0.311 0.823,0.698 l 0.076,3.938 c 0.007,0.396 -0.363,0.721 -0.823,0.721 H 0 c -0.454,0 -0.823,-0.317 -0.823,-0.709 V 0.71 C -0.823,0.318 -0.454,0 0,0"
                   style="fill:#ffffff;fill-opacity:1;fill-rule:nonzero;stroke:none"
                   id="path708" />
              </g>
              <g
                 transform="translate(314.5089,91.4996)"
                 id="g714">
                <path
                   d="m 0,0 h 11.323 c 0.454,0 0.823,0.318 0.823,0.71 v 3.938 c 0,0.392 -0.369,0.709 -0.823,0.709 L 0,5.357 c -0.454,0 -0.823,-0.317 -0.823,-0.709 V 0.71 C -0.823,0.318 -0.454,0 0,0"
                   style="fill:#ffffff;fill-opacity:1;fill-rule:nonzero;stroke:none"
                   id="path712" />
              </g>
              <g
                 transform="translate(395.7156,82.2752)"
                 id="g718">
                <path
                   d="m 0,0 h -10.134 c -0.726,0 -1.311,-0.513 -1.298,-1.138 l 0.076,-3.934 c 0.012,-0.611 0.59,-1.101 1.298,-1.101 H 0.164 c 0.735,0 1.323,0.526 1.297,1.16 L 1.297,-1.079 C 1.272,-0.477 0.699,0 0,0"
                   style="fill:#ffffff;fill-opacity:1;fill-rule:nonzero;stroke:none"
                   id="path716" />
              </g>
              <g
                 transform="translate(411.6313,82.2752)"
                 id="g722">
                <path
                   d="m 0,0 h -11.671 c -0.735,0 -1.324,-0.526 -1.298,-1.16 l 0.164,-3.934 c 0.025,-0.602 0.599,-1.079 1.297,-1.079 H 0.35 c 0.756,0 1.352,0.555 1.294,1.205 l -0.35,3.934 C 1.242,-0.451 0.678,0 0,0"
                   style="fill:#ffffff;fill-opacity:1;fill-rule:nonzero;stroke:none"
                   id="path720" />
              </g>
              <g
                 transform="translate(296.2527,82.4886)"
                 id="g726">
                <path
                   d="M 0,0 H -7.802 C -8.611,0 -9.28,-0.542 -9.33,-1.239 l -0.254,-3.532 c -0.055,-0.76 0.645,-1.402 1.528,-1.402 h 7.987 c 0.835,0 1.517,0.578 1.531,1.298 l 0.069,3.533 C 1.545,-0.605 0.856,0 0,0"
                   style="fill:#ffffff;fill-opacity:1;fill-rule:nonzero;stroke:none"
                   id="path724" />
              </g>
              <g
                 transform="translate(398.3468,88.921)"
                 id="g730">
                <path
                   d="M 0,0 0.164,-3.934 C 0.189,-4.536 0.762,-5.013 1.461,-5.013 H 12.96 c 0.755,0 1.352,0.555 1.294,1.205 l -0.35,3.934 C 13.852,0.709 13.288,1.159 12.61,1.159 H 1.297 C 0.562,1.159 -0.026,0.633 0,0"
                   style="fill:#ffffff;fill-opacity:1;fill-rule:nonzero;stroke:none"
                   id="path728" />
              </g>
              <g
                 transform="translate(369.1256,81.7673)"
                 id="g734">
                <path
                   d="M 0,0 C 0.008,0.396 -0.363,0.721 -0.823,0.721 H -12.03 c -0.454,0 -0.823,-0.317 -0.823,-0.709 v -4.754 c 0,-0.392 0.369,-0.709 0.823,-0.709 H 0.129 c -0.139,0.261 -0.223,0.562 -0.219,0.752 z"
                   style="fill:#ffffff;fill-opacity:1;fill-rule:nonzero;stroke:none"
                   id="path732" />
              </g>
              <g
                 transform="translate(382.6284,81.7909)"
                 id="g738">
                <path
                   d="m 0,0 c -0.008,0.387 -0.374,0.698 -0.823,0.698 h -10.21 c -0.449,0 -0.816,-0.311 -0.823,-0.698 l -0.091,-4.746 c -0.004,-0.186 -0.09,-0.475 -0.226,-0.729 H -0.73 c 0.46,0 0.83,0.325 0.822,0.722 z"
                   style="fill:#ffffff;fill-opacity:1;fill-rule:nonzero;stroke:none"
                   id="path736" />
              </g>
              <g
                 transform="translate(339.3022,82.4886)"
                 id="g742">
                <path
                   d="m 0,0 h -10.179 c -0.454,0 -0.823,-0.318 -0.823,-0.71 v -4.722 c 0,-0.392 -0.368,-0.71 -0.823,-0.71 -0.454,0 -0.823,0.318 -0.823,0.71 v 4.722 c 0,0.392 -0.368,0.71 -0.823,0.71 h -11.322 c -0.455,0 -0.823,-0.318 -0.823,-0.71 v -4.722 c 0,-0.392 -0.369,-0.71 -0.823,-0.71 -0.455,0 -0.823,0.318 -0.823,0.71 v 4.722 c 0,0.392 -0.368,0.71 -0.823,0.71 h -10.952 c -0.449,0 -0.815,-0.31 -0.823,-0.698 l -0.093,-4.753 c -0.007,-0.397 0.363,-0.722 0.823,-0.722 H 0 c 0.454,0 0.823,0.318 0.823,0.71 V -0.71 C 0.823,-0.318 0.454,0 0,0"
                   style="fill:#ffffff;fill-opacity:1;fill-rule:nonzero;stroke:none"
                   id="path740" />
              </g>
              <g
                 transform="translate(353.804,82.4886)"
                 id="g746">
                <path
                   d="m 0,0 h -11.21 c -0.455,0 -0.823,-0.318 -0.823,-0.71 v -4.753 c 0,-0.392 0.368,-0.71 0.823,-0.71 H 0 c 0.454,0 0.823,0.318 0.823,0.71 V -0.71 C 0.823,-0.318 0.454,0 0,0"
                   style="fill:#ffffff;fill-opacity:1;fill-rule:nonzero;stroke:none"
                   id="path744" />
              </g>
              <g
                 transform="translate(284.2793,90.0804)"
                 id="g750">
                <path
                   d="m 0,0 h -8.698 c -0.786,0 -1.445,-0.513 -1.524,-1.188 l -0.412,-3.532 c -0.09,-0.778 0.618,-1.453 1.524,-1.453 h 8.856 c 0.809,0 1.478,0.543 1.528,1.239 l 0.254,3.532 C 1.583,-0.642 0.883,0 0,0"
                   style="fill:#ffffff;fill-opacity:1;fill-rule:nonzero;stroke:none"
                   id="path748" />
              </g>
              <g
                 transform="translate(385.3622,91.2862)"
                 id="g754">
                <path
                   d="m 0,0 h 9.886 c 0.735,0 1.323,0.526 1.297,1.159 l -0.13,3.119 C 11.028,4.88 10.455,5.357 9.756,5.357 h -9.817 c -0.725,0 -1.31,-0.512 -1.298,-1.138 L -1.298,1.1 C -1.286,0.49 -0.708,0 0,0"
                   style="fill:#ffffff;fill-opacity:1;fill-rule:nonzero;stroke:none"
                   id="path752" />
              </g>
              <g
                 transform="translate(372.2784,91.4996)"
                 id="g758">
                <path
                   d="m 0,0 h 8.841 c 0.725,0 1.31,0.513 1.298,1.138 l -0.061,3.119 c -0.012,0.611 -0.589,1.1 -1.298,1.1 H 0.06 c -0.709,0 -1.286,-0.49 -1.298,-1.1 L -1.298,1.138 C -1.31,0.512 -0.725,0 0,0"
                   style="fill:#ffffff;fill-opacity:1;fill-rule:nonzero;stroke:none"
                   id="path756" />
              </g>
              <g
                 transform="translate(311.2172,90.0804)"
                 id="g762">
                <path
                   d="m 0,0 h -10.803 c -0.449,0 -0.815,-0.31 -0.823,-0.698 l -0.093,-4.753 c -0.008,-0.397 0.363,-0.722 0.823,-0.722 H 0 c 0.454,0 0.823,0.318 0.823,0.71 V -0.71 C 0.823,-0.318 0.454,0 0,0"
                   style="fill:#ffffff;fill-opacity:1;fill-rule:nonzero;stroke:none"
                   id="path760" />
              </g>
              <g
                 transform="translate(288.7424,83.9078)"
                 id="g766">
                <path
                   d="M 0,0 H 7.59 C 8.425,0 9.107,0.578 9.121,1.298 L 9.19,4.83 C 9.204,5.568 8.515,6.173 7.659,6.173 H 0.254 c -0.809,0 -1.478,-0.543 -1.528,-1.239 L -1.528,1.402 C -1.583,0.642 -0.883,0 0,0"
                   style="fill:#ffffff;fill-opacity:1;fill-rule:nonzero;stroke:none"
                   id="path764" />
              </g>
              <g
                 transform="translate(428.0493,98.2762)"
                 id="g770">
                <path
                   d="m 0,0 h 16.633 c 0.94,0 1.67,0.705 1.565,1.511 l -0.23,1.751 c -0.09,0.69 -0.77,1.21 -1.575,1.206 L -0.26,4.377 C -1.206,4.372 -1.934,3.653 -1.812,2.844 l 0.25,-1.66 C -1.46,0.507 -0.792,0 0,0"
                   style="fill:#ffffff;fill-opacity:1;fill-rule:nonzero;stroke:none"
                   id="path768" />
              </g>
              <g
                 transform="translate(425.0988,90.0804)"
                 id="g774">
                <path
                   d="m 0,0 h -9.888 c -0.756,0 -1.352,-0.555 -1.294,-1.205 l 0.35,-3.934 c 0.051,-0.583 0.615,-1.034 1.294,-1.034 h 10.13 c 0.783,0 1.388,0.594 1.287,1.264 L 1.287,-0.975 C 1.203,-0.417 0.652,0 0,0"
                   style="fill:#ffffff;fill-opacity:1;fill-rule:nonzero;stroke:none"
                   id="path772" />
              </g>
              <g
                 transform="translate(431.1094,76.316)"
                 id="g778">
                <path
                   d="m 0,0 h 16.762 c 0.775,0 1.377,0.581 1.29,1.245 l -0.516,3.934 c -0.074,0.566 -0.629,0.994 -1.29,0.994 H -0.592 c -0.783,0 -1.388,-0.594 -1.287,-1.264 L -1.287,0.975 C -1.203,0.417 -0.652,0 0,0"
                   style="fill:#ffffff;fill-opacity:1;fill-rule:nonzero;stroke:none"
                   id="path776" />
              </g>
              <g
                 transform="translate(262.1975,83.9078)"
                 id="g782">
                <path
                   d="M 0,0 H 8.24 C 9.026,0 9.684,0.514 9.763,1.188 L 10.175,4.72 C 10.266,5.498 9.558,6.173 8.652,6.173 h -8.08 c -0.764,0 -1.411,-0.486 -1.516,-1.138 L -1.516,1.503 C -1.645,0.709 -0.93,0 0,0"
                   style="fill:#ffffff;fill-opacity:1;fill-rule:nonzero;stroke:none"
                   id="path780" />
              </g>
              <g
                 transform="translate(368.4484,90.0804)"
                 id="g786">
                <path
                   d="m 0,0 h -11.353 c -0.454,0 -0.823,-0.318 -0.823,-0.71 v -4.753 c 0,-0.392 0.369,-0.71 0.823,-0.71 h 11.262 c 0.449,0 0.815,0.311 0.823,0.698 l 0.091,4.754 C 0.831,-0.325 0.46,0 0,0"
                   style="fill:#ffffff;fill-opacity:1;fill-rule:nonzero;stroke:none"
                   id="path784" />
              </g>
              <g
                 transform="translate(382.467,90.0804)"
                 id="g790">
                <path
                   d="m 0,0 h -11.536 l -0.118,-6.173 H 0.12 Z"
                   style="fill:#ffffff;fill-opacity:1;fill-rule:nonzero;stroke:none"
                   id="path788" />
              </g>
              <g
                 transform="translate(325.8315,90.0804)"
                 id="g794">
                <path
                   d="m 0,0 h -11.323 c -0.454,0 -0.822,-0.318 -0.822,-0.71 v -4.753 c 0,-0.392 0.368,-0.71 0.822,-0.71 H 0 c 0.455,0 0.823,0.318 0.823,0.71 V -0.71 C 0.823,-0.318 0.455,0 0,0"
                   style="fill:#ffffff;fill-opacity:1;fill-rule:nonzero;stroke:none"
                   id="path792" />
              </g>
              <g
                 transform="translate(395.3999,89.867)"
                 id="g798">
                <path
                   d="m 0,0 h -9.967 c -0.725,0 -1.31,-0.513 -1.297,-1.138 l 0.076,-3.934 c 0.012,-0.611 0.59,-1.101 1.298,-1.101 H 0.164 c 0.735,0 1.323,0.526 1.297,1.16 L 1.297,-1.079 C 1.272,-0.477 0.699,0 0,0"
                   style="fill:#ffffff;fill-opacity:1;fill-rule:nonzero;stroke:none"
                   id="path796" />
              </g>
              <g
                 transform="translate(339.3022,90.0804)"
                 id="g802">
                <path
                   d="m 0,0 h -10.179 c -0.454,0 -0.823,-0.318 -0.823,-0.71 v -4.753 c 0,-0.392 0.369,-0.71 0.823,-0.71 H 0 c 0.454,0 0.823,0.318 0.823,0.71 V -0.71 C 0.823,-0.318 0.454,0 0,0"
                   style="fill:#ffffff;fill-opacity:1;fill-rule:nonzero;stroke:none"
                   id="path800" />
              </g>
              <g
                 transform="translate(353.804,90.0804)"
                 id="g806">
                <path
                   d="m 0,0 h -11.21 c -0.455,0 -0.823,-0.318 -0.823,-0.71 v -4.753 c 0,-0.392 0.368,-0.71 0.823,-0.71 H 0 c 0.454,0 0.823,0.318 0.823,0.71 V -0.71 C 0.823,-0.318 0.454,0 0,0"
                   style="fill:#ffffff;fill-opacity:1;fill-rule:nonzero;stroke:none"
                   id="path804" />
              </g>
              <g
                 transform="translate(410.3544,96.857)"
                 id="g810">
                <path
                   d="m 0,0 h -10.992 c -0.735,0 -1.324,-0.526 -1.297,-1.16 l 0.129,-3.118 c 0.025,-0.602 0.599,-1.079 1.297,-1.079 h 11.14 c 0.756,0 1.352,0.554 1.295,1.204 L 1.294,-1.034 C 1.242,-0.451 0.678,0 0,0"
                   style="fill:#ffffff;fill-opacity:1;fill-rule:nonzero;stroke:none"
                   id="path808" />
              </g>
              <g
                 transform="translate(381.9533,74.8968)"
                 id="g814">
                <path
                   d="m 0,0 h -94.714 c -0.435,0 -0.794,-0.292 -0.821,-0.666 l -0.579,-8.053 c -0.03,-0.411 0.351,-0.757 0.828,-0.754 L 0.15,-8.799 c 0.458,0.003 0.824,0.327 0.817,0.722 L 0.823,-0.698 C 0.815,-0.311 0.449,0 0,0"
                   style="fill:#ffffff;fill-opacity:1;fill-rule:nonzero;stroke:none"
                   id="path812" />
              </g>
              <g
                 transform="translate(396.0314,74.6833)"
                 id="g818">
                <path
                   d="m 0,0 h -10.302 c -0.726,0 -1.31,-0.513 -1.298,-1.138 l 0.127,-6.534 c 0.012,-0.614 0.596,-1.105 1.308,-1.1 l 10.444,0.073 c 0.731,0.006 1.313,0.53 1.287,1.16 l -0.269,6.46 C 1.272,-0.477 0.699,0 0,0"
                   style="fill:#ffffff;fill-opacity:1;fill-rule:nonzero;stroke:none"
                   id="path816" />
              </g>
              <g
                 transform="translate(283.188,74.8968)"
                 id="g822">
                <path
                   d="m 0,0 h -9.378 c -0.786,0 -1.444,-0.514 -1.523,-1.188 l -0.808,-6.929 c -0.091,-0.781 0.625,-1.459 1.536,-1.452 l 9.693,0.068 c 0.804,0.006 1.465,0.547 1.515,1.239 l 0.493,6.86 C 1.583,-0.642 0.883,0 0,0"
                   style="fill:#ffffff;fill-opacity:1;fill-rule:nonzero;stroke:none"
                   id="path820" />
              </g>
              <g
                 transform="translate(258.9604,85.0454)"
                 id="g826">
                <path
                   d="M 0,0 0.572,3.532 C 0.701,4.326 -0.014,5.035 -0.944,5.035 H -15.35 c -0.731,0 -1.36,-0.446 -1.502,-1.065 L -17.66,0.438 c -0.186,-0.816 0.538,-1.576 1.503,-1.576 h 14.641 c 0.763,0 1.41,0.486 1.516,1.138"
                   style="fill:#ffffff;fill-opacity:1;fill-rule:nonzero;stroke:none"
                   id="path824" />
              </g>
              <g
                 transform="translate(412.306,74.6833)"
                 id="g830">
                <path
                   d="m 0,0 h -12.03 c -0.736,0 -1.324,-0.526 -1.298,-1.159 l 0.268,-6.431 c 0.025,-0.605 0.605,-1.084 1.308,-1.079 l 12.326,0.087 c 0.752,0.006 1.341,0.559 1.284,1.205 L 1.294,-1.034 C 1.242,-0.451 0.678,0 0,0"
                   style="fill:#ffffff;fill-opacity:1;fill-rule:nonzero;stroke:none"
                   id="path828" />
              </g>
              <g
                 transform="translate(269.7899,66.4824)"
                 id="g834">
                <path
                   d="M 0,0 0.812,6.962 C 0.902,7.74 0.195,8.414 -0.712,8.414 H -9.48 c -0.764,0 -1.411,-0.485 -1.516,-1.137 l -1.139,-7.026 c -0.129,-0.799 0.594,-1.51 1.529,-1.503 l 9.095,0.064 C -0.729,-1.183 -0.078,-0.671 0,0"
                   style="fill:#ffffff;fill-opacity:1;fill-rule:nonzero;stroke:none"
                   id="path832" />
              </g>
              <g
                 transform="translate(269.9637,82.4886)"
                 id="g838">
                <path
                   d="M 0,0 H -8.424 C -9.188,0 -9.835,-0.485 -9.94,-1.138 l -0.572,-3.532 c -0.129,-0.794 0.586,-1.503 1.516,-1.503 h 8.584 c 0.786,0 1.445,0.514 1.524,1.189 l 0.411,3.532 C 1.614,-0.675 0.906,0 0,0"
                   style="fill:#ffffff;fill-opacity:1;fill-rule:nonzero;stroke:none"
                   id="path836" />
              </g>
              <g
                 transform="translate(257.7304,77.4536)"
                 id="g842">
                <path
                   d="m 0,0 0.572,3.532 c 0.129,0.794 -0.586,1.503 -1.516,1.503 h -14.912 c -0.732,0 -1.361,-0.446 -1.502,-1.065 l -0.808,-3.532 c -0.187,-0.816 0.537,-1.576 1.502,-1.576 h 15.148 c 0.763,0 1.41,0.486 1.516,1.138"
                   style="fill:#ffffff;fill-opacity:1;fill-rule:nonzero;stroke:none"
                   id="path840" />
              </g>
              <g
                 transform="translate(255.5564,74.8968)"
                 id="g846">
                <path
                   d="m 0,0 h -15.419 c -0.731,0 -1.361,-0.446 -1.502,-1.065 l -1.641,-7.172 c -0.187,-0.82 0.545,-1.583 1.515,-1.576 L -1.131,-9.7 c 0.759,0.005 1.399,0.489 1.504,1.137 l 1.143,7.06 C 1.645,-0.709 0.93,0 0,0"
                   style="fill:#ffffff;fill-opacity:1;fill-rule:nonzero;stroke:none"
                   id="path844" />
              </g>
              <g
                 transform="translate(427.383,74.8968)"
                 id="g850">
                <path
                   d="m 0,0 h -10.823 c -0.755,0 -1.352,-0.555 -1.294,-1.205 l 0.561,-6.313 c 0.052,-0.587 0.623,-1.039 1.305,-1.034 l 11.199,0.079 c 0.779,0.006 1.377,0.597 1.277,1.264 L 1.287,-0.975 C 1.203,-0.417 0.652,0 0,0"
                   style="fill:#ffffff;fill-opacity:1;fill-rule:nonzero;stroke:none"
                   id="path848" />
              </g>
              <g
                 transform="translate(450.4389,67.8161)"
                 id="g854">
                <path
                   d="m 0,0 -0.915,5.979 c -0.097,0.63 -0.72,1.102 -1.458,1.102 h -16.406 c -0.783,0 -1.388,-0.594 -1.287,-1.264 l 0.933,-6.204 c 0.084,-0.561 0.642,-0.98 1.298,-0.975 l 16.556,0.117 C -0.509,-1.24 0.087,-0.66 0,0"
                   style="fill:#ffffff;fill-opacity:1;fill-rule:nonzero;stroke:none"
                   id="path852" />
              </g>
              <g
                 transform="translate(261.2882,99.4138)"
                 id="g858">
                <path
                   d="M 0,0 0.133,0.821 C 0.262,1.619 -0.459,2.329 -1.393,2.324 L -15.038,2.25 C -15.765,2.246 -16.389,1.801 -16.53,1.185 l -0.171,-0.747 c -0.187,-0.816 0.538,-1.576 1.502,-1.576 h 13.683 c 0.763,0 1.41,0.486 1.516,1.138"
                   style="fill:#ffffff;fill-opacity:1;fill-rule:nonzero;stroke:none"
                   id="path856" />
              </g>
              <g
                 transform="translate(414.5915,81.2838)"
                 id="g862">
                <path
                   d="m 0,0 0.35,-3.934 c 0.052,-0.583 0.616,-1.034 1.294,-1.034 h 10.597 c 0.783,0 1.388,0.594 1.288,1.264 L 12.937,0.23 C 12.853,0.787 12.302,1.205 11.649,1.205 H 1.294 C 0.538,1.205 -0.058,0.65 0,0"
                   style="fill:#ffffff;fill-opacity:1;fill-rule:nonzero;stroke:none"
                   id="path860" />
              </g>
              <g
                 transform="translate(429.9673,83.9078)"
                 id="g866">
                <path
                   d="m 0,0 h 16.909 c 0.774,0 1.377,0.581 1.29,1.245 l -0.516,3.934 c -0.074,0.566 -0.63,0.994 -1.29,0.994 H -0.592 c -0.783,0 -1.388,-0.594 -1.287,-1.264 L -1.287,0.975 C -1.203,0.417 -0.652,0 0,0"
                   style="fill:#ffffff;fill-opacity:1;fill-rule:nonzero;stroke:none"
                   id="path864" />
              </g>
              <g
                 transform="translate(428.8252,91.4996)"
                 id="g870">
                <path
                   d="m 0,0 h 17.056 c 0.774,0 1.376,0.581 1.289,1.245 L 17.936,4.364 C 17.862,4.93 17.307,5.357 16.647,5.357 H -0.469 c -0.783,0 -1.388,-0.593 -1.288,-1.263 l 0.47,-3.119 C -1.203,0.417 -0.652,0 0,0"
                   style="fill:#ffffff;fill-opacity:1;fill-rule:nonzero;stroke:none"
                   id="path868" />
              </g>
              <g
                 transform="translate(314.5089,98.2762)"
                 id="g874">
                <path
                   d="m 0,0 h 11.323 c 0.454,0 0.823,0.318 0.823,0.71 v 2.402 c 0,0.393 -0.372,0.712 -0.829,0.709 L -0.005,3.76 C -0.458,3.757 -0.823,3.44 -0.823,3.05 V 0.71 C -0.823,0.318 -0.454,0 0,0"
                   style="fill:#ffffff;fill-opacity:1;fill-rule:nonzero;stroke:none"
                   id="path872" />
              </g>
              <g
                 transform="translate(357.0957,98.2762)"
                 id="g878">
                <path
                   d="m 0,0 h 11.537 c 0.449,0 0.816,0.311 0.823,0.698 l 0.051,2.636 c 0.007,0.398 -0.367,0.723 -0.828,0.721 L -0.005,3.992 C -0.458,3.989 -0.823,3.672 -0.823,3.282 V 0.71 C -0.823,0.318 -0.454,0 0,0"
                   style="fill:#ffffff;fill-opacity:1;fill-rule:nonzero;stroke:none"
                   id="path876" />
              </g>
              <g
                 transform="translate(371.9253,98.2762)"
                 id="g882">
                <path
                   d="m 0,0 h 9.545 c 0.46,0 0.831,0.325 0.823,0.722 L 10.315,3.427 C 10.308,3.816 9.939,4.127 9.487,4.124 L 0.046,4.073 C -0.401,4.07 -0.764,3.76 -0.772,3.375 L -0.823,0.721 C -0.83,0.325 -0.46,0 0,0"
                   style="fill:#ffffff;fill-opacity:1;fill-rule:nonzero;stroke:none"
                   id="path880" />
              </g>
              <g
                 transform="translate(329.1232,98.2762)"
                 id="g886">
                <path
                   d="m 0,0 h 10.179 c 0.454,0 0.823,0.318 0.823,0.71 v 2.475 c 0,0.394 -0.372,0.712 -0.828,0.71 L -0.005,3.839 C -0.458,3.837 -0.823,3.52 -0.823,3.13 V 0.71 C -0.823,0.318 -0.454,0 0,0"
                   style="fill:#ffffff;fill-opacity:1;fill-rule:nonzero;stroke:none"
                   id="path884" />
              </g>
              <g
                 transform="translate(342.5939,98.2762)"
                 id="g890">
                <path
                   d="m 0,0 h 11.21 c 0.455,0 0.823,0.318 0.823,0.71 v 2.554 c 0,0.394 -0.372,0.712 -0.828,0.71 L -0.005,3.913 C -0.458,3.91 -0.823,3.593 -0.823,3.203 V 0.71 C -0.823,0.318 -0.454,0 0,0"
                   style="fill:#ffffff;fill-opacity:1;fill-rule:nonzero;stroke:none"
                   id="path888" />
              </g>
              <g
                 transform="translate(412.8061,101.3738)"
                 id="g894">
                <path
                   d="m 0,0 0.183,-2.064 c 0.052,-0.583 0.616,-1.034 1.295,-1.034 h 9.245 c 0.783,0 1.388,0.594 1.287,1.264 L 11.692,0.279 C 11.608,0.84 11.052,1.258 10.397,1.255 L 1.286,1.205 C 0.533,1.201 -0.057,0.647 0,0"
                   style="fill:#ffffff;fill-opacity:1;fill-rule:nonzero;stroke:none"
                   id="path892" />
              </g>
              <g
                 transform="translate(385.2302,98.0627)"
                 id="g898">
                <path
                   d="m 0,0 h 9.736 c 0.735,0 1.323,0.526 1.297,1.16 L 10.951,3.119 C 10.926,3.724 10.348,4.202 9.646,4.198 L -0.045,4.145 C -0.767,4.141 -1.347,3.63 -1.335,3.007 L -1.298,1.101 C -1.286,0.49 -0.708,0 0,0"
                   style="fill:#ffffff;fill-opacity:1;fill-rule:nonzero;stroke:none"
                   id="path896" />
              </g>
              <g
                 transform="translate(399.21,98.2762)"
                 id="g902">
                <path
                   d="m 0,0 h 10.819 c 0.756,0 1.353,0.555 1.295,1.205 l -0.182,2.04 C 11.88,3.831 11.311,4.283 10.63,4.279 L -0.091,4.221 C -0.823,4.217 -1.406,3.692 -1.38,3.061 L -1.297,1.079 C -1.272,0.477 -0.699,0 0,0"
                   style="fill:#ffffff;fill-opacity:1;fill-rule:nonzero;stroke:none"
                   id="path900" />
              </g>
              <g
                 transform="translate(289.7751,98.2762)"
                 id="g906">
                <path
                   d="M 0,0 H 6.838 C 7.674,0 8.355,0.578 8.369,1.298 L 8.389,2.32 C 8.404,3.061 7.708,3.667 6.849,3.662 L 0.061,3.625 C -0.744,3.621 -1.408,3.079 -1.457,2.387 L -1.528,1.402 C -1.583,0.642 -0.883,0 0,0"
                   style="fill:#ffffff;fill-opacity:1;fill-rule:nonzero;stroke:none"
                   id="path904" />
              </g>
              <g
                 transform="translate(276.8449,98.2762)"
                 id="g910">
                <path
                   d="M 0,0 H 8.213 C 9.022,0 9.691,0.542 9.741,1.239 L 9.81,2.198 C 9.865,2.961 9.159,3.604 8.272,3.599 L 0.097,3.555 C -0.686,3.551 -1.339,3.038 -1.417,2.367 L -1.523,1.452 C -1.614,0.675 -0.906,0 0,0"
                   style="fill:#ffffff;fill-opacity:1;fill-rule:nonzero;stroke:none"
                   id="path908" />
              </g>
              <g
                 transform="translate(264.5253,98.2762)"
                 id="g914">
                <path
                   d="M 0,0 H 7.587 C 8.374,0 9.032,0.514 9.111,1.188 L 9.215,2.077 C 9.306,2.857 8.591,3.534 7.681,3.529 L 0.128,3.488 C -0.632,3.484 -1.274,2.999 -1.379,2.35 L -1.516,1.503 C -1.645,0.709 -0.93,0 0,0"
                   style="fill:#ffffff;fill-opacity:1;fill-rule:nonzero;stroke:none"
                   id="path912" />
              </g>
              <g
                 transform="translate(272.8459,92.6878)"
                 id="g918">
                <path
                   d="M 0,0 0.317,2.717 C 0.408,3.494 -0.3,4.169 -1.207,4.169 h -7.771 c -0.764,0 -1.411,-0.485 -1.517,-1.137 l -0.44,-2.717 c -0.128,-0.794 0.587,-1.503 1.517,-1.503 h 7.895 c 0.786,0 1.444,0.513 1.523,1.188"
                   style="fill:#ffffff;fill-opacity:1;fill-rule:nonzero;stroke:none"
                   id="path916" />
              </g>
              <g
                 transform="translate(244.5394,91.4996)"
                 id="g922">
                <path
                   d="m 0,0 h 14.134 c 0.764,0 1.411,0.485 1.517,1.138 l 0.44,2.716 C 16.22,4.648 15.504,5.357 14.575,5.357 H 0.622 c -0.732,0 -1.361,-0.446 -1.503,-1.064 L -1.502,1.576 C -1.689,0.76 -0.965,0 0,0"
                   style="fill:#ffffff;fill-opacity:1;fill-rule:nonzero;stroke:none"
                   id="path920" />
              </g>
              <g
                 transform="translate(300.6022,98.2762)"
                 id="g926">
                <path
                   d="m 0,0 h 10.615 c 0.454,0 0.823,0.318 0.823,0.71 v 2.322 c 0,0.394 -0.372,0.712 -0.828,0.71 L 0.039,3.684 C -0.408,3.682 -0.771,3.372 -0.778,2.986 L -0.823,0.722 C -0.831,0.325 -0.46,0 0,0"
                   style="fill:#ffffff;fill-opacity:1;fill-rule:nonzero;stroke:none"
                   id="path924" />
              </g>
              <g
                 transform="translate(413.3145,95.6521)"
                 id="g930">
                <path
                   d="m 0,0 0.277,-3.119 c 0.052,-0.583 0.616,-1.033 1.295,-1.033 h 9.662 c 0.783,0 1.388,0.593 1.287,1.263 L 12.052,0.23 C 11.968,0.787 11.417,1.205 10.765,1.205 H 1.294 C 0.538,1.205 -0.058,0.65 0,0"
                   style="fill:#ffffff;fill-opacity:1;fill-rule:nonzero;stroke:none"
                   id="path928" />
              </g>
            </g>
          </g>
        </g>
        <g
           id="g936">
          <g
             id="g938" />
          <g
             id="g950">
            <g
               clip-path="url(#clipPath942)"
               opacity="0.199997"
               id="g948">
              <g
                 transform="translate(424.0287,106.1669)"
                 id="g946">
                <path
                   d="m 0,0 h 16.126 c 0.911,0 1.62,0.493 1.517,1.057 L 17.421,2.281 C 17.333,2.764 16.674,3.127 15.893,3.124 L -0.252,3.061 C -1.169,3.057 -1.875,2.555 -1.757,1.989 L -1.515,0.828 C -1.416,0.354 -0.768,0 0,0"
                   style="fill:#ffffff;fill-opacity:1;fill-rule:nonzero;stroke:none"
                   id="path944" />
              </g>
            </g>
          </g>
        </g>
        <g
           id="g952">
          <g
             id="g954" />
          <g
             id="g966">
            <g
               clip-path="url(#clipPath958)"
               opacity="0.199997"
               id="g964">
              <g
                 transform="translate(262.3486,106.9624)"
                 id="g962">
                <path
                   d="m 0,0 0.129,0.574 c 0.125,0.558 -0.574,1.055 -1.48,1.051 L -14.579,1.573 C -15.285,1.57 -15.89,1.259 -16.026,0.829 l -0.166,-0.523 c -0.181,-0.57 0.521,-1.102 1.456,-1.102 H -1.47 c 0.74,0 1.368,0.34 1.47,0.796"
                   style="fill:#ffffff;fill-opacity:1;fill-rule:nonzero;stroke:none"
                   id="path960" />
              </g>
            </g>
          </g>
        </g>
        <g
           id="g968">
          <g
             id="g970" />
          <g
             id="g982">
            <g
               clip-path="url(#clipPath974)"
               opacity="0.199997"
               id="g980">
              <g
                 transform="translate(313.9478,106.1669)"
                 id="g978">
                <path
                   d="m 0,0 h 10.978 c 0.44,0 0.797,0.222 0.797,0.496 v 1.68 c 0,0.275 -0.36,0.498 -0.802,0.496 L -0.005,2.629 C -0.444,2.627 -0.798,2.406 -0.798,2.133 V 0.496 C -0.798,0.222 -0.441,0 0,0"
                   style="fill:#ffffff;fill-opacity:1;fill-rule:nonzero;stroke:none"
                   id="path976" />
              </g>
            </g>
          </g>
        </g>
        <g
           id="g984">
          <g
             id="g986" />
          <g
             id="g998">
            <g
               clip-path="url(#clipPath990)"
               opacity="0.199997"
               id="g996">
              <g
                 transform="translate(355.237,106.1669)"
                 id="g994">
                <path
                   d="m 0,0 h 11.186 c 0.435,0 0.79,0.217 0.797,0.488 l 0.05,1.843 C 12.04,2.609 11.677,2.837 11.23,2.835 L -0.005,2.791 C -0.444,2.79 -0.798,2.568 -0.798,2.295 V 0.496 C -0.798,0.222 -0.441,0 0,0"
                   style="fill:#ffffff;fill-opacity:1;fill-rule:nonzero;stroke:none"
                   id="path992" />
              </g>
            </g>
          </g>
        </g>
        <g
           id="g1000">
          <g
             id="g1002" />
          <g
             id="g1014">
            <g
               clip-path="url(#clipPath1006)"
               opacity="0.199997"
               id="g1012">
              <g
                 transform="translate(369.6148,106.1669)"
                 id="g1010">
                <path
                   d="M 0,0 H 9.254 C 9.7,0 10.06,0.227 10.052,0.505 L 10.001,2.396 C 9.994,2.668 9.636,2.886 9.198,2.884 L 0.044,2.848 C -0.389,2.846 -0.741,2.63 -0.748,2.36 L -0.798,0.504 C -0.805,0.227 -0.446,0 0,0"
                   style="fill:#ffffff;fill-opacity:1;fill-rule:nonzero;stroke:none"
                   id="path1008" />
              </g>
            </g>
          </g>
        </g>
        <g
           id="g1016">
          <g
             id="g1018" />
          <g
             id="g1030">
            <g
               clip-path="url(#clipPath1022)"
               opacity="0.199997"
               id="g1028">
              <g
                 transform="translate(328.1168,106.1669)"
                 id="g1026">
                <path
                   d="m 0,0 h 9.869 c 0.441,0 0.798,0.222 0.798,0.496 v 1.731 c 0,0.276 -0.361,0.498 -0.803,0.496 L -0.005,2.685 C -0.444,2.683 -0.798,2.461 -0.798,2.189 V 0.496 C -0.798,0.222 -0.441,0 0,0"
                   style="fill:#ffffff;fill-opacity:1;fill-rule:nonzero;stroke:none"
                   id="path1024" />
              </g>
            </g>
          </g>
        </g>
        <g
           id="g1032">
          <g
             id="g1034" />
          <g
             id="g1046">
            <g
               clip-path="url(#clipPath1038)"
               opacity="0.199997"
               id="g1044">
              <g
                 transform="translate(341.1771,106.1669)"
                 id="g1042">
                <path
                   d="m 0,0 h 10.868 c 0.441,0 0.798,0.222 0.798,0.496 v 1.787 c 0,0.275 -0.36,0.497 -0.803,0.496 L -0.005,2.736 C -0.444,2.734 -0.798,2.513 -0.798,2.24 V 0.496 C -0.798,0.222 -0.441,0 0,0"
                   style="fill:#ffffff;fill-opacity:1;fill-rule:nonzero;stroke:none"
                   id="path1040" />
              </g>
            </g>
          </g>
        </g>
        <g
           id="g1048">
          <g
             id="g1050" />
          <g
             id="g1062">
            <g
               clip-path="url(#clipPath1054)"
               opacity="0.199997"
               id="g1060">
              <g
                 transform="translate(409.2499,108.333)"
                 id="g1058">
                <path
                   d="m 0,0 0.178,-1.443 c 0.05,-0.408 0.597,-0.723 1.255,-0.723 h 8.963 c 0.76,0 1.346,0.415 1.248,0.883 L 11.336,0.195 C 11.254,0.587 10.715,0.88 10.08,0.877 L 1.247,0.842 C 0.517,0.84 -0.056,0.452 0,0"
                   style="fill:#ffffff;fill-opacity:1;fill-rule:nonzero;stroke:none"
                   id="path1056" />
              </g>
            </g>
          </g>
        </g>
        <g
           id="g1064">
          <g
             id="g1066" />
          <g
             id="g1078">
            <g
               clip-path="url(#clipPath1070)"
               opacity="0.199997"
               id="g1076">
              <g
                 transform="translate(382.5143,106.0176)"
                 id="g1074">
                <path
                   d="m 0,0 h 9.439 c 0.713,0 1.283,0.368 1.258,0.811 l -0.079,1.37 C 10.593,2.604 10.033,2.938 9.352,2.935 L -0.044,2.898 c -0.7,-0.002 -1.262,-0.36 -1.25,-0.795 L -1.258,0.77 C -1.247,0.342 -0.687,0 0,0"
                   style="fill:#ffffff;fill-opacity:1;fill-rule:nonzero;stroke:none"
                   id="path1072" />
              </g>
            </g>
          </g>
        </g>
        <g
           id="g1080">
          <g
             id="g1082" />
          <g
             id="g1094">
            <g
               clip-path="url(#clipPath1086)"
               opacity="0.199997"
               id="g1092">
              <g
                 transform="translate(396.0681,106.1669)"
                 id="g1090">
                <path
                   d="m 0,0 h 10.49 c 0.733,0 1.311,0.388 1.255,0.842 L 11.569,2.27 C 11.518,2.679 10.967,2.995 10.306,2.992 L -0.088,2.952 C -0.797,2.949 -1.363,2.582 -1.338,2.141 l 0.08,-1.386 C -1.233,0.334 -0.677,0 0,0"
                   style="fill:#ffffff;fill-opacity:1;fill-rule:nonzero;stroke:none"
                   id="path1088" />
              </g>
            </g>
          </g>
        </g>
        <g
           id="g1096">
          <g
             id="g1098" />
          <g
             id="g1110">
            <g
               clip-path="url(#clipPath1102)"
               opacity="0.199997"
               id="g1108">
              <g
                 transform="translate(289.9676,106.1669)"
                 id="g1106">
                <path
                   d="m 0,0 h 6.63 c 0.81,0 1.471,0.404 1.484,0.908 l 0.02,0.714 C 8.148,2.14 7.473,2.564 6.64,2.561 L 0.059,2.535 C -0.721,2.532 -1.365,2.153 -1.413,1.669 L -1.482,0.98 C -1.535,0.449 -0.856,0 0,0"
                   style="fill:#ffffff;fill-opacity:1;fill-rule:nonzero;stroke:none"
                   id="path1104" />
              </g>
            </g>
          </g>
        </g>
        <g
           id="g1112">
          <g
             id="g1114" />
          <g
             id="g1126">
            <g
               clip-path="url(#clipPath1118)"
               opacity="0.199997"
               id="g1124">
              <g
                 transform="translate(277.4313,106.1669)"
                 id="g1122">
                <path
                   d="M 0,0 H 7.963 C 8.747,0 9.396,0.379 9.445,0.866 L 9.511,1.537 C 9.565,2.07 8.88,2.52 8.02,2.517 L 0.094,2.486 C -0.665,2.483 -1.298,2.124 -1.374,1.655 L -1.477,1.016 C -1.565,0.472 -0.879,0 0,0"
                   style="fill:#ffffff;fill-opacity:1;fill-rule:nonzero;stroke:none"
                   id="path1120" />
              </g>
            </g>
          </g>
        </g>
        <g
           id="g1128">
          <g
             id="g1130" />
          <g
             id="g1142">
            <g
               clip-path="url(#clipPath1134)"
               opacity="0.199997"
               id="g1140">
              <g
                 transform="translate(265.4871,106.1669)"
                 id="g1138">
                <path
                   d="M 0,0 H 7.356 C 8.119,0 8.757,0.359 8.833,0.831 L 8.934,1.452 C 9.022,1.998 8.33,2.471 7.448,2.468 L 0.124,2.439 C -0.613,2.436 -1.235,2.097 -1.337,1.644 L -1.47,1.051 C -1.595,0.496 -0.901,0 0,0"
                   style="fill:#ffffff;fill-opacity:1;fill-rule:nonzero;stroke:none"
                   id="path1136" />
              </g>
            </g>
          </g>
        </g>
        <g
           id="g1144">
          <g
             id="g1146" />
          <g
             id="g1158">
            <g
               clip-path="url(#clipPath1150)"
               opacity="0.199997"
               id="g1156">
              <g
                 transform="translate(300.4648,106.1669)"
                 id="g1154">
                <path
                   d="m 0,0 h 10.292 c 0.44,0 0.797,0.222 0.797,0.496 V 2.12 c 0,0.276 -0.36,0.498 -0.803,0.496 L 0.038,2.576 C -0.395,2.574 -0.747,2.358 -0.755,2.088 L -0.798,0.505 C -0.805,0.227 -0.446,0 0,0"
                   style="fill:#ffffff;fill-opacity:1;fill-rule:nonzero;stroke:none"
                   id="path1152" />
              </g>
            </g>
          </g>
        </g>
        <g
           id="g1160">
          <g
             id="g1162" />
          <g
             id="g1174">
            <g
               clip-path="url(#clipPath1166)"
               opacity="0.300003"
               id="g1172">
              <g
                 transform="translate(556.5059,61.337)"
                 id="g1170">
                <path
                   d="m 0,0 c -4.87,-1.652 -14.438,-2.502 -25.755,-2.232 -13.846,0.332 -55.851,2.546 -100.389,1.399 -49.142,-1.266 -193.009,-0.692 -199.828,0 -3.706,0.376 -6.929,1.671 -9.172,2.938 -0.2,-0.827 -0.395,-1.635 -0.578,-2.401 -1.187,-4.961 3.194,-9.609 9.068,-9.621 34.36,-0.069 135.969,-0.246 154.47,0.024 22.338,0.327 70.042,2.612 87.08,1.959 12.634,-0.484 54.832,-1.328 75.8,-1.731 C -3.295,-9.781 1.223,-5.036 0,0"
                   style="fill:#000000;fill-opacity:1;fill-rule:nonzero;stroke:none"
                   id="path1168" />
              </g>
            </g>
          </g>
        </g>
      </g>
    </g>
    <g
       id="g1176"
       transform="matrix(0.53022385,0,0,-0.51004886,-328.34202,115.66166)">
      <g
         id="g1178"
         clip-path="url(#clipPath1182)">
        <g
           id="g1184"
           transform="translate(579.8078,95.7256)">
          <path
             d="M 0,0 C 0,0 -2.172,7.472 0.815,9.877 3.803,12.283 20.82,12.365 29.384,10.761 37.948,9.158 45.628,3.463 48.814,-3.913 52.001,-11.29 54.767,-32.178 35.868,-33.098 13.861,-34.169 2.959,-11.665 0,0"
             style="fill:#1a2e35;fill-opacity:1;fill-rule:nonzero;stroke:none"
             id="path1186" />
        </g>
        <g
           id="g1188"
           transform="translate(593.9354,107.5644)">
          <path
             d="m 0,0 c 0,0 3.611,-2.534 5.008,-4.408 1.396,-1.875 4.539,-4.78 7.216,-4.03 2.677,0.75 1.008,4.387 -4.346,8.219 0,0 -4.336,1.306 -7.878,0.219"
             style="fill:#007cff;fill-opacity:1;fill-rule:nonzero;stroke:none"
             id="path1190" />
        </g>
      </g>
    </g>
    <path
       id="rect2013"
       style="overflow:visible;fill:#2ad4ff;fill-rule:evenodd;stroke-width:1.00216;stop-color:#000000"
       d="m 132.21342,57.434025 14.81265,-10.038575 -2.80122,-4.221106 12.57668,1.63902 -3.34907,11.780192 -2.35164,-3.468349 -14.92919,10.149483 z"
       sodipodi:nodetypes="cccccccc" />
    <path
       id="rect2013-5"
       style="overflow:visible;fill:#2ad4ff;fill-rule:evenodd;stroke-width:1.00216;stop-color:#000000"
       d="m 135.60694,90.05934 13.65224,11.56736 3.31229,-3.833181 1.80352,12.554141 -12.24688,-0.0577 2.70817,-3.19772 -13.79039,-11.649807 z"
       sodipodi:nodetypes="cccccccc" />
    <path
       id="rect2013-5-6"
       style="overflow:visible;fill:#ff7f2a;fill-rule:evenodd;stroke-width:1.00216;stop-color:#000000"
       d="M 33.489465,28.3982 47.141701,39.965559 50.453994,36.132384 52.257512,48.68652 40.010639,48.628811 42.718808,45.431088 28.928414,33.781283 Z"
       sodipodi:nodetypes="cccccccc" />
    <path
       id="rect2013-3"
       style="overflow:visible;fill:#ff7f2a;fill-rule:evenodd;stroke-width:1.00216;stop-color:#000000"
       d="m 27.016843,109.70178 15.058471,-9.6659 -2.695026,-4.289668 12.531874,1.952287 -3.641933,11.692961 -2.264378,-3.52594 -15.17775,9.77387 z"
       sodipodi:nodetypes="cccccccc" />
    <path
       id="rect2013-3-6"
       style="overflow:visible;fill:#ff7f2a;fill-rule:evenodd;stroke-width:1.00216;stop-color:#000000"
       d="m 26.07037,68.567926 17.882404,0.637806 0.229749,-5.0608 9.185689,8.745417 -9.655852,7.533481 0.148433,-4.187788 -18.04194,-0.617066 z"
       sodipodi:nodetypes="cccccccc"
       inkscape:transform-center-x="6.5999039"
       inkscape:transform-center-y="-7.5294957" />
    <g
       id="g4007"
       transform="matrix(0.93380266,0,0,0.93380266,-58.057562,102.63368)">
      <path
         d="M 65.174539,53.08187 39.700454,44.384133 c -0.291748,-0.09948 -0.447323,-0.416278 -0.347839,-0.707672 L 51.233113,8.8812808 c 0.09948,-0.2913945 0.41663,-0.4469695 0.708025,-0.3474862 l 25.473729,8.6977364 c 0.291394,0.09948 0.446969,0.416631 0.347486,0.707673 L 65.881855,52.734736 c -0.09948,0.291395 -0.415922,0.446617 -0.707316,0.347134"
         style="fill:#f9aa39;fill-opacity:1;fill-rule:nonzero;stroke:none;stroke-width:0.0352778"
         id="path2526" />
      <path
         d="m 51.763338,9.033328 -0.02928,0.01905 -11.880498,34.79518 0.01764,0.03563 25.474085,8.697736 h 3.53e-4 l 0.03528,-0.01729 11.880494,-34.795533 -0.01799,-0.03598 L 51.77004,9.0347391 Z m 13.590059,44.607695 c -0.116064,0 -0.234244,-0.0187 -0.349955,-0.05821 L 39.529356,44.885078 C 39.254895,44.791238 39.032998,44.596153 38.90494,44.33545 38.776881,44.0751 38.758184,43.780178 38.85167,43.505364 L 50.732168,8.7101835 c 0.09419,-0.2748139 0.288925,-0.4963583 0.549981,-0.6244167 0.26035,-0.1277055 0.554919,-0.1471083 0.830086,-0.052564 l 25.473376,8.6973842 c 0.274814,0.09419 0.496359,0.288925 0.62477,0.549628 0.127705,0.260703 0.146755,0.555625 0.05256,0.830439 L 66.382799,52.905481 c -0.154164,0.45085 -0.577144,0.735542 -1.029402,0.735542"
         style="fill:#253561;fill-opacity:1;fill-rule:nonzero;stroke:none;stroke-width:0.0352778"
         id="path2528" />
      <path
         d="M 70.461263,50.763414 43.62934,48.614292 c -0.306917,-0.0247 -0.53587,-0.293511 -0.511175,-0.600428 l 2.935111,-36.650086 c 0.02505,-0.306916 0.293511,-0.535869 0.600781,-0.511175 l 26.831923,2.149123 c 0.306917,0.02434 0.53587,0.293158 0.511175,0.600075 l -2.935464,36.650085 c -0.02434,0.30727 -0.293511,0.53587 -0.600428,0.511528"
         style="fill:#ffffff;fill-opacity:1;fill-rule:nonzero;stroke:none;stroke-width:0.0352778"
         id="path2530" />
      <path
         d="m 46.609607,11.380006 -0.02893,0.02646 -2.935111,36.649733 0.02611,0.03069 26.831924,2.149122 0.03069,-0.02611 2.935465,-36.650086 -0.02611,-0.03069 -26.832276,-2.149122 z m 23.898223,39.914339 -0.0889,-0.0035 -26.831923,-2.149122 c -0.289278,-0.02328 -0.552098,-0.157692 -0.740128,-0.378531 -0.188736,-0.221192 -0.2794,-0.502356 -0.256117,-0.791633 l 2.935111,-36.650114 c 0.04833,-0.597606 0.573617,-1.044223 1.170517,-0.996245 l 26.831924,2.149123 c 0.597252,0.04763 1.043869,0.572558 0.996244,1.169458 L 71.589094,50.29422 c -0.02293,0.289277 -0.157339,0.55245 -0.37853,0.740833 -0.198614,0.168628 -0.445206,0.259292 -0.702734,0.259292"
         style="fill:#253561;fill-opacity:1;fill-rule:nonzero;stroke:none;stroke-width:0.0352778"
         id="path2532" />
      <path
         d="m 62.758363,18.28034 6.796614,0.544336"
         style="fill:#ffffff;fill-opacity:1;fill-rule:nonzero;stroke:none;stroke-width:0.0352778"
         id="path2534" />
      <path
         d="m 69.55533,19.177454 -0.02858,-0.0011 -6.796614,-0.544689 c -0.19438,-0.01552 -0.339019,-0.185561 -0.323497,-0.379941 0.01552,-0.193675 0.179917,-0.339372 0.379942,-0.323145 l 6.796966,0.544336 c 0.193675,0.01552 0.33902,0.185562 0.323498,0.379942 -0.01482,0.184503 -0.169334,0.324556 -0.35172,0.324556"
         style="fill:#f9aa39;fill-opacity:1;fill-rule:nonzero;stroke:none;stroke-width:0.0352778"
         id="path2536" />
      <path
         d="m 62.584444,20.451334 6.796967,0.544689"
         style="fill:#ffffff;fill-opacity:1;fill-rule:nonzero;stroke:none;stroke-width:0.0352778"
         id="path2538" />
      <path
         d="m 69.381763,21.348801 -0.02858,-0.0014 -6.796966,-0.544336 c -0.194028,-0.01552 -0.33902,-0.185561 -0.323498,-0.379942 0.01552,-0.194028 0.183445,-0.339725 0.379942,-0.323144 l 6.796967,0.544336 c 0.194028,0.01552 0.339019,0.185561 0.323497,0.379942 -0.01482,0.184502 -0.16898,0.324555 -0.351367,0.324555"
         style="fill:#f9aa39;fill-opacity:1;fill-rule:nonzero;stroke:none;stroke-width:0.0352778"
         id="path2540" />
      <path
         d="m 46.670285,43.798875 6.797322,0.544336"
         style="fill:#ffffff;fill-opacity:1;fill-rule:nonzero;stroke:none;stroke-width:0.0352778"
         id="path2542" />
      <path
         d="m 53.46796,44.695989 -0.02858,-0.0011 -6.797323,-0.544336 c -0.194027,-0.01552 -0.339019,-0.185561 -0.323497,-0.379941 0.01552,-0.194028 0.185208,-0.339726 0.379942,-0.323498 l 6.797322,0.544689 c 0.194028,0.01552 0.33902,0.185561 0.323498,0.379589 -0.01482,0.184503 -0.168981,0.324556 -0.351367,0.324556"
         style="fill:#f9aa39;fill-opacity:1;fill-rule:nonzero;stroke:none;stroke-width:0.0352778"
         id="path2544" />
      <path
         d="m 47.722268,32.048199 6.043436,0.484011"
         style="fill:#ffffff;fill-opacity:1;fill-rule:nonzero;stroke:none;stroke-width:0.0352778"
         id="path2546" />
      <path
         d="m 53.766057,32.884988 -0.02858,-0.0011 -6.043436,-0.484012 c -0.194028,-0.01552 -0.33902,-0.185561 -0.323497,-0.379941 0.01552,-0.193675 0.182738,-0.341136 0.379941,-0.323145 l 6.043437,0.484011 c 0.194027,0.01552 0.339019,0.185562 0.323497,0.379942 -0.01482,0.18415 -0.169333,0.324203 -0.351367,0.324203"
         style="fill:#253561;fill-opacity:1;fill-rule:nonzero;stroke:none;stroke-width:0.0352778"
         id="path2548" />
      <path
         d="m 47.077037,40.104233 10.393187,0.832203"
         style="fill:#ffffff;fill-opacity:1;fill-rule:nonzero;stroke:none;stroke-width:0.0352778"
         id="path2550" />
      <path
         d="m 57.470577,41.289213 -0.02858,-0.0011 -10.393187,-0.832555 c -0.194028,-0.01552 -0.339019,-0.185209 -0.323497,-0.379589 0.01588,-0.194028 0.182386,-0.341489 0.379942,-0.323498 l 10.393186,0.832556 c 0.194028,0.01552 0.33902,0.185208 0.323498,0.379589 -0.01482,0.184503 -0.169334,0.324555 -0.351367,0.324555"
         style="fill:#253561;fill-opacity:1;fill-rule:nonzero;stroke:none;stroke-width:0.0352778"
         id="path2552" />
      <path
         d="m 47.399476,36.076216 7.868004,0.630061"
         style="fill:#ffffff;fill-opacity:1;fill-rule:nonzero;stroke:none;stroke-width:0.0352778"
         id="path2554" />
      <path
         d="m 55.267832,37.059055 -0.02858,-0.0011 -7.868003,-0.630414 c -0.194028,-0.01552 -0.339019,-0.185209 -0.323497,-0.379589 0.01552,-0.194028 0.179564,-0.339373 0.379942,-0.323498 l 7.868356,0.630414 c 0.194027,0.01552 0.339019,0.185562 0.323497,0.379942 -0.01482,0.18415 -0.169334,0.324203 -0.35172,0.324203"
         style="fill:#253561;fill-opacity:1;fill-rule:nonzero;stroke:none;stroke-width:0.0352778"
         id="path2556" />
      <path
         d="m 47.987557,28.342621 20.34822,1.630186"
         style="fill:#ffffff;fill-opacity:1;fill-rule:nonzero;stroke:none;stroke-width:0.0352778"
         id="path2558" />
      <path
         d="m 68.33613,30.325585 -0.02858,-0.0014 -20.34822,-1.629834 c -0.194028,-0.01552 -0.33902,-0.185561 -0.323498,-0.379941 0.01552,-0.193675 0.179917,-0.342195 0.379942,-0.323145 l 20.348573,1.629834 c 0.193675,0.01552 0.338667,0.185561 0.323497,0.379941 -0.01482,0.184503 -0.169333,0.324556 -0.351719,0.324556"
         style="fill:#253561;fill-opacity:1;fill-rule:nonzero;stroke:none;stroke-width:0.0352778"
         id="path2560" />
      <path
         d="m 57.777494,36.87561 9.722905,0.778934"
         style="fill:#ffffff;fill-opacity:1;fill-rule:nonzero;stroke:none;stroke-width:0.0352778"
         id="path2562" />
      <path
         d="m 67.500752,38.007322 -0.02858,-0.0011 -9.722906,-0.778933 c -0.194027,-0.01552 -0.339019,-0.185561 -0.323497,-0.379942 0.01552,-0.193675 0.18027,-0.34043 0.379942,-0.323144 l 9.722906,0.77858 c 0.194027,0.01552 0.339019,0.185561 0.323497,0.379942 -0.01482,0.184503 -0.168981,0.324556 -0.351367,0.324556"
         style="fill:#253561;fill-opacity:1;fill-rule:nonzero;stroke:none;stroke-width:0.0352778"
         id="path2564" />
      <path
         d="m 56.021719,32.65921 12.46928,1.052689"
         style="fill:#ffffff;fill-opacity:1;fill-rule:nonzero;stroke:none;stroke-width:0.0352778"
         id="path2566" />
      <path
         d="m 68.491352,34.064677 -0.02999,-0.0014 -12.469281,-1.052336 c -0.19438,-0.01658 -0.338314,-0.186973 -0.321733,-0.381353 0.01658,-0.194028 0.188383,-0.335492 0.381,-0.321734 l 12.469281,1.052337 c 0.19438,0.01658 0.338314,0.186972 0.321733,0.381352 -0.01552,0.18415 -0.169333,0.323145 -0.351014,0.323145"
         style="fill:#253561;fill-opacity:1;fill-rule:nonzero;stroke:none;stroke-width:0.0352778"
         id="path2568" />
    </g>
    <g
       id="g3983"
       transform="matrix(1.0687576,0,0,1.0687576,57.303146,-171.42835)">
      <path
         d="m 121.02718,301.23549 -17.42864,-12.56171 c -0.20179,-0.1457 -0.24729,-0.42722 -0.10195,-0.62901 l 17.01977,-23.61318 c 0.14534,-0.20179 0.42686,-0.24765 0.62865,-0.10195 l 17.42827,12.56136 c 0.20178,0.1457 0.24765,0.42721 0.1023,0.62935 l -17.0194,23.61319 c -0.14534,0.20178 -0.42721,0.24729 -0.629,0.10195"
         style="fill:#ffffff;fill-opacity:1;fill-rule:nonzero;stroke:none;stroke-width:0.0352778"
         id="path2490" />
      <path
         d="m 121.02718,301.23549 -17.42864,-12.56171 c -0.20179,-0.1457 -0.24729,-0.42722 -0.10195,-0.62901 l 17.01977,-23.61318 c 0.14534,-0.20179 0.42686,-0.24765 0.62865,-0.10195 l 17.42827,12.56136 c 0.20178,0.1457 0.24765,0.42721 0.1023,0.62935 l -17.0194,23.61319 c -0.14534,0.20178 -0.42721,0.24729 -0.629,0.10195"
         style="fill:#54b2d8;fill-opacity:1;fill-rule:nonzero;stroke:none;stroke-width:0.0352778"
         id="path2494" />
      <path
         d="m 131.69624,282.28462 c -0.0713,0 -0.14358,-0.0215 -0.20602,-0.0663 l -3.00532,-2.16606 c -0.15804,-0.11395 -0.19332,-0.33443 -0.0797,-0.49248 0.11359,-0.15804 0.33408,-0.19438 0.49247,-0.0797 l 3.00532,2.16571 c 0.15803,0.11394 0.19366,0.33443 0.0797,0.49247 -0.0688,0.0956 -0.17708,0.14641 -0.28644,0.14641"
         style="fill:#253561;fill-opacity:1;fill-rule:nonzero;stroke:none;stroke-width:0.0352778"
         id="path2498" />
      <path
         d="m 128.4715,286.75925 c -0.0713,0 -0.14358,-0.0219 -0.20602,-0.0667 l -13.15897,-9.48479 c -0.1584,-0.11359 -0.19368,-0.33408 -0.0801,-0.49212 0.11359,-0.15805 0.33408,-0.19438 0.49283,-0.0801 l 13.15897,9.48443 c 0.15839,0.11395 0.19367,0.33443 0.0801,0.49283 -0.0688,0.0953 -0.1771,0.1464 -0.28681,0.1464"
         style="fill:#253561;fill-opacity:1;fill-rule:nonzero;stroke:none;stroke-width:0.0352778"
         id="path2500" />
      <path
         d="m 126.27757,289.80337 c -0.0716,0 -0.14393,-0.0219 -0.20602,-0.0667 l -5.23064,-3.76979 c -0.15804,-0.1143 -0.19332,-0.33478 -0.0797,-0.49283 0.11359,-0.15769 0.33408,-0.19367 0.49247,-0.0801 l 5.23064,3.77014 c 0.15804,0.11394 0.19332,0.33443 0.0797,0.49248 -0.0688,0.0956 -0.1771,0.14675 -0.28646,0.14675"
         style="fill:#f9aa39;fill-opacity:1;fill-rule:nonzero;stroke:none;stroke-width:0.0352778"
         id="path2502" />
      <path
         d="m 116.32006,282.62611 c -0.0713,0 -0.14358,-0.0215 -0.20602,-0.0667 l -3.20146,-2.30752 c -0.15804,-0.11359 -0.19367,-0.33408 -0.0801,-0.49212 0.11395,-0.1584 0.33444,-0.19438 0.49283,-0.0801 l 3.20146,2.30752 c 0.15805,0.11394 0.19368,0.33443 0.0801,0.49247 -0.0691,0.0956 -0.17709,0.14641 -0.28681,0.14641"
         style="fill:#f9aa39;fill-opacity:1;fill-rule:nonzero;stroke:none;stroke-width:0.0352778"
         id="path2504" />
      <path
         d="m 118.4131,289.30595 c -0.0716,0 -0.14394,-0.0215 -0.20603,-0.0663 l -8.10542,-5.842 c -0.15805,-0.11395 -0.19368,-0.33443 -0.0801,-0.49248 0.11395,-0.15804 0.33443,-0.19438 0.49283,-0.0797 l 8.10543,5.84164 c 0.15804,0.11395 0.19332,0.33444 0.0797,0.49248 -0.0688,0.0956 -0.17709,0.1464 -0.28645,0.1464"
         style="fill:#253561;fill-opacity:1;fill-rule:nonzero;stroke:none;stroke-width:0.0352778"
         id="path2506" />
      <path
         d="m 122.75015,298.39175 -21.50922,-8.27405 c -0.23213,-0.0896 -0.34819,-0.34996 -0.25894,-0.58244 l 11.20211,-29.1211 c 0.0896,-0.23248 0.3503,-0.34819 0.58279,-0.25894 l 21.50885,8.27405 c 0.23248,0.0896 0.34819,0.34996 0.25894,0.58244 l -11.2021,29.12145 c -0.0896,0.23213 -0.3503,0.34784 -0.58243,0.25859"
         style="fill:#ffffff;fill-opacity:1;fill-rule:nonzero;stroke:none;stroke-width:0.0352778"
         id="path2508" />
      <path
         d="m 101.5041,289.65203 21.36282,8.21796 11.14564,-28.97505 -21.36244,-8.21761 z m 21.40656,9.29887 c -0.11677,0 -0.2353,-0.0208 -0.35066,-0.0649 l -21.50887,-8.27405 c -0.50482,-0.19474 -0.75706,-0.76306 -0.56268,-1.26683 l 11.20176,-29.1211 c 0.19438,-0.50377 0.762,-0.75635 1.26612,-0.56268 l 21.50955,8.27405 c 0.50377,0.19403 0.75636,0.762 0.56268,1.26612 l -11.20209,29.12145 c -0.14993,0.38877 -0.52246,0.62795 -0.91581,0.62795"
         style="fill:#253561;fill-opacity:1;fill-rule:nonzero;stroke:none;stroke-width:0.0352778"
         id="path2510" />
      <path
         d="m 122.75015,298.39175 -21.50922,-8.27405 c -0.23213,-0.0896 -0.34819,-0.34996 -0.25894,-0.58244 l 11.20211,-29.1211 c 0.0896,-0.23248 0.3503,-0.34819 0.58279,-0.25894 l 21.50885,8.27405 c 0.23248,0.0896 0.34819,0.34996 0.25894,0.58244 l -11.2021,29.12145 c -0.0896,0.23213 -0.3503,0.34784 -0.58243,0.25859"
         style="fill:#ffffff;fill-opacity:1;fill-rule:nonzero;stroke:none;stroke-width:0.0352778"
         id="path2512" />
      <path
         d="m 101.5041,289.65203 21.36282,8.21796 11.14564,-28.97505 -21.36244,-8.21761 z m 21.40656,9.29887 c -0.11677,0 -0.2353,-0.0208 -0.35066,-0.0649 l -21.50887,-8.27405 c -0.50482,-0.19474 -0.75706,-0.76306 -0.56268,-1.26683 l 11.20176,-29.1211 c 0.19438,-0.50377 0.762,-0.75635 1.26612,-0.56268 l 21.50955,8.27405 c 0.50377,0.19403 0.75636,0.762 0.56268,1.26612 l -11.20209,29.12145 c -0.14993,0.38877 -0.52246,0.62795 -0.91581,0.62795"
         style="fill:#253561;fill-opacity:1;fill-rule:nonzero;stroke:none;stroke-width:0.0352778"
         id="path2514" />
      <path
         d="m 116.56912,270.95728 c -0.042,0 -0.085,-0.008 -0.12664,-0.0236 l -3.69923,-1.42275 c -0.18133,-0.0702 -0.27235,-0.27411 -0.2025,-0.45579 0.0699,-0.18204 0.27411,-0.2727 0.45615,-0.20285 l 3.69887,1.42311 c 0.18168,0.0699 0.2727,0.27375 0.20285,0.45578 -0.0543,0.14006 -0.18803,0.22614 -0.3295,0.22614"
         style="fill:#253561;fill-opacity:1;fill-rule:nonzero;stroke:none;stroke-width:0.0352778"
         id="path2516" />
      <path
         d="m 126.38588,281.36493 c -0.042,0 -0.085,-0.008 -0.12665,-0.024 l -16.19603,-6.23006 c -0.18168,-0.0699 -0.2727,-0.27411 -0.20285,-0.45579 0.0705,-0.18203 0.27411,-0.27305 0.45614,-0.20249 l 16.19639,6.23005 c 0.18132,0.0698 0.27234,0.27411 0.20249,0.45579 -0.0543,0.14006 -0.18768,0.22649 -0.32949,0.22649"
         style="fill:#253561;fill-opacity:1;fill-rule:nonzero;stroke:none;stroke-width:0.0352778"
         id="path2518" />
      <path
         d="m 124.94443,285.11143 c -0.042,0 -0.085,-0.008 -0.12665,-0.0236 l -6.43749,-2.4765 c -0.18168,-0.0698 -0.2727,-0.27411 -0.2025,-0.45579 0.0699,-0.18168 0.27376,-0.2727 0.45615,-0.20249 l 6.43749,2.4765 c 0.18132,0.0699 0.27234,0.27375 0.20249,0.45579 -0.054,0.14005 -0.18768,0.22613 -0.32949,0.22613"
         style="fill:#f9aa39;fill-opacity:1;fill-rule:nonzero;stroke:none;stroke-width:0.0352778"
         id="path2520" />
      <path
         d="m 112.68927,280.39726 c -0.042,0 -0.085,-0.008 -0.12664,-0.0236 l -3.94053,-1.51589 c -0.18168,-0.0702 -0.2727,-0.2741 -0.2025,-0.45578 0.0699,-0.18204 0.27341,-0.27305 0.45579,-0.20285 l 3.94053,1.51588 c 0.18168,0.0702 0.2727,0.27411 0.20285,0.45579 -0.0543,0.14041 -0.18803,0.22649 -0.3295,0.22649"
         style="fill:#f9aa39;fill-opacity:1;fill-rule:nonzero;stroke:none;stroke-width:0.0352778"
         id="path2522" />
      <path
         d="m 116.67319,286.73808 c -0.042,0 -0.085,-0.007 -0.12664,-0.0233 l -9.97621,-3.83787 c -0.18132,-0.0699 -0.27234,-0.27411 -0.20249,-0.45579 0.0702,-0.18168 0.27375,-0.27269 0.45614,-0.20249 l 9.97585,3.83716 c 0.18168,0.0702 0.2727,0.27446 0.20285,0.45614 -0.0543,0.14041 -0.18803,0.22613 -0.3295,0.22613"
         style="fill:#253561;fill-opacity:1;fill-rule:nonzero;stroke:none;stroke-width:0.0352778"
         id="path2524" />
    </g>
    <g
       style="clip-rule:evenodd;fill-rule:evenodd;image-rendering:optimizeQuality;shape-rendering:geometricPrecision;text-rendering:geometricPrecision"
       id="g4245"
       transform="matrix(13.753516,0,0,13.753516,117.01464,-109.27635)">
      <g
         id="Diagram">
  <g
   id="_89279536">
   <path
   id="_49291816"
   d="m -2.5750659,11.926049 h 1.7201626 c 0.3158164,0 0.5733694,0.257564 0.5733694,0.573369 v 1.720163 c 0,0.315816 -0.2575639,0.573369 -0.5733694,0.573369 h -1.7201626 c -0.3158164,0 -0.5733694,-0.257564 -0.5733694,-0.573369 v -1.720163 c 0,-0.315816 0.2575638,-0.573369 0.5733694,-0.573369 z"
   class="fil0 str0"
   style="fill:#464646;fill-opacity:1;stroke:#000000;stroke-width:0.0505422;stroke-dasharray:none;stroke-opacity:1" />

   <g
   id="g4151"
   transform="matrix(0.54178348,0,0,0.54178348,-3.5362981,11.538213)">
    <line
   id="_49463536"
   y2="4.4200001"
   class="fil1 str1"
   x2="0.18669"
   y1="4.4200001"
   x1="0.71585"
   style="fill:none;stroke:#e77817;stroke-width:0.37335;stroke-linecap:round" />

    <line
   id="_89464800"
   y2="3.8903999"
   class="fil1 str1"
   x2="0.18669"
   y1="3.8903999"
   x1="0.71585"
   style="fill:none;stroke:#e77817;stroke-width:0.37335;stroke-linecap:round" />

    <line
   id="_48992992"
   y2="2.8325"
   class="fil1 str1"
   x2="0.18669"
   y1="2.8325"
   x1="0.71585"
   style="fill:none;stroke:#e77817;stroke-width:0.37335;stroke-linecap:round" />

    <line
   id="_89724760"
   y2="3.3612001"
   class="fil1 str1"
   x2="0.18669"
   y1="3.3612001"
   x1="0.71585"
   style="fill:none;stroke:#e77817;stroke-width:0.37335;stroke-linecap:round" />

    <line
   id="_88883544"
   y2="2.3029001"
   class="fil1 str1"
   x2="0.18669"
   y1="2.3029001"
   x1="0.71585"
   style="fill:none;stroke:#e77817;stroke-width:0.37335;stroke-linecap:round" />

    <line
   id="_88717464"
   y2="1.7738"
   class="fil1 str1"
   x2="0.18669"
   y1="1.7738"
   x1="0.71585"
   style="fill:none;stroke:#e77817;stroke-width:0.37335;stroke-linecap:round" />

    <line
   id="_47721408"
   y2="4.9489002"
   class="fil1 str1"
   x2="0.18669"
   y1="4.9489002"
   x1="0.71585"
   style="fill:none;stroke:#e77817;stroke-width:0.37335;stroke-linecap:round" />

   </g>

   <g
   id="g4160"
   transform="matrix(0.54178348,0,0,0.54178348,-3.5362981,11.538213)">
    <line
   id="_88838488"
   y2="4.4200001"
   class="fil1 str1"
   x2="6.0075002"
   y1="4.4200001"
   x1="6.5366001"
   style="fill:none;stroke:#e77817;stroke-width:0.37335;stroke-linecap:round" />

    <line
   id="_89015240"
   y2="3.8903999"
   class="fil1 str1"
   x2="6.0075002"
   y1="3.8903999"
   x1="6.5366001"
   style="fill:none;stroke:#e77817;stroke-width:0.37335;stroke-linecap:round" />

    <line
   id="_88728056"
   y2="2.8325"
   class="fil1 str1"
   x2="6.0075002"
   y1="2.8325"
   x1="6.5366001"
   style="fill:none;stroke:#e77817;stroke-width:0.37335;stroke-linecap:round" />

    <line
   id="_88883880"
   y2="3.3612001"
   class="fil1 str1"
   x2="6.0075002"
   y1="3.3612001"
   x1="6.5366001"
   style="fill:none;stroke:#e77817;stroke-width:0.37335;stroke-linecap:round" />

    <line
   id="_48765136"
   y2="2.3029001"
   class="fil1 str1"
   x2="6.0075002"
   y1="2.3029001"
   x1="6.5366001"
   style="fill:none;stroke:#e77817;stroke-width:0.37335;stroke-linecap:round" />

    <line
   id="_88837776"
   y2="1.7738"
   class="fil1 str1"
   x2="6.0075002"
   y1="1.7738"
   x1="6.5366001"
   style="fill:none;stroke:#e77817;stroke-width:0.37335;stroke-linecap:round" />

    <line
   id="_88883448"
   y2="4.9489002"
   class="fil1 str1"
   x2="6.0075002"
   y1="4.9489002"
   x1="6.5366001"
   style="fill:none;stroke:#e77817;stroke-width:0.37335;stroke-linecap:round" />

   </g>

   <g
   id="g4169"
   transform="matrix(0.54178348,0,0,0.54178348,-3.5362981,11.538213)">
    <line
   id="_49461584"
   y2="6.0075002"
   class="fil1 str1"
   x2="2.3032999"
   y1="6.5366001"
   x1="2.3032999"
   style="fill:none;stroke:#e77817;stroke-width:0.37335;stroke-linecap:round" />

    <line
   id="_88775512"
   y2="6.0075002"
   class="fil1 str1"
   x2="2.8329"
   y1="6.5366001"
   x1="2.8329"
   style="fill:none;stroke:#e77817;stroke-width:0.37335;stroke-linecap:round" />

    <line
   id="_89016840"
   y2="6.0075002"
   class="fil1 str1"
   x2="3.8908"
   y1="6.5366001"
   x1="3.8908"
   style="fill:none;stroke:#e77817;stroke-width:0.37335;stroke-linecap:round" />

    <line
   id="_49345496"
   y2="6.0075002"
   class="fil1 str1"
   x2="3.3620999"
   y1="6.5366001"
   x1="3.3620999"
   style="fill:none;stroke:#e77817;stroke-width:0.37335;stroke-linecap:round" />

    <line
   id="_88883592"
   y2="6.0075002"
   class="fil1 str1"
   x2="4.4204001"
   y1="6.5366001"
   x1="4.4204001"
   style="fill:none;stroke:#e77817;stroke-width:0.37335;stroke-linecap:round" />

    <line
   id="_48765680"
   y2="6.0075002"
   class="fil1 str1"
   x2="4.9496002"
   y1="6.5366001"
   x1="4.9496002"
   style="fill:none;stroke:#e77817;stroke-width:0.37335;stroke-linecap:round" />

    <line
   id="_89016792"
   y2="6.0075002"
   class="fil1 str1"
   x2="1.7744"
   y1="6.5366001"
   x1="1.7744"
   style="fill:none;stroke:#e77817;stroke-width:0.37335;stroke-linecap:round" />

   </g>

   <g
   id="g4178"
   transform="matrix(0.54178348,0,0,0.54178348,-3.5362981,11.538213)">
    <line
   id="_49237864"
   y2="0.18669"
   class="fil1 str1"
   x2="2.3031001"
   y1="0.71585"
   x1="2.3031001"
   style="fill:none;stroke:#e77817;stroke-width:0.37335;stroke-linecap:round" />

    <line
   id="_49453984"
   y2="0.18669"
   class="fil1 str1"
   x2="2.8327"
   y1="0.71585"
   x1="2.8327"
   style="fill:none;stroke:#e77817;stroke-width:0.37335;stroke-linecap:round" />

    <line
   id="_88713544"
   y2="0.18669"
   class="fil1 str1"
   x2="3.8906"
   y1="0.71585"
   x1="3.8906"
   style="fill:none;stroke:#e77817;stroke-width:0.37335;stroke-linecap:round" />

    <line
   id="_49454176"
   y2="0.18669"
   class="fil1 str1"
   x2="3.3619001"
   y1="0.71585"
   x1="3.3619001"
   style="fill:none;stroke:#e77817;stroke-width:0.37335;stroke-linecap:round" />

    <line
   id="_48736464"
   y2="0.18669"
   class="fil1 str1"
   x2="4.4201999"
   y1="0.71585"
   x1="4.4201999"
   style="fill:none;stroke:#e77817;stroke-width:0.37335;stroke-linecap:round" />

    <line
   id="_89017000"
   y2="0.18669"
   class="fil1 str1"
   x2="4.9493999"
   y1="0.71585"
   x1="4.9493999"
   style="fill:none;stroke:#e77817;stroke-width:0.37335;stroke-linecap:round" />

    <line
   id="_89016208"
   y2="0.18669"
   class="fil1 str1"
   x2="1.7742"
   y1="0.71585"
   x1="1.7742"
   style="fill:none;stroke:#e77817;stroke-width:0.37335;stroke-linecap:round" />

   </g>

   <path
   id="_88769344"
   d="m -2.4890848,12.19843 h 1.5481462 c 0.213181,0 0.3870339,0.173848 0.3870339,0.387034 v 1.548146 c 0,0.213181 -0.1738475,0.387034 -0.3870339,0.387034 h -1.5481462 c -0.213181,0 -0.3870339,-0.173847 -0.3870339,-0.387034 v -1.548146 c 0,-0.213181 0.1738475,-0.387034 0.3870339,-0.387034 z"
   class="fil2 str2"
   style="fill:#000000;fill-opacity:1;stroke:#000000;stroke-width:0.186662;stroke-opacity:1" />

   
   
  <text
   xml:space="preserve"
   style="font-size:0.928736px;line-height:115%;font-family:sans-serif;-inkscape-font-specification:sans-serif;text-decoration-color:#000000;letter-spacing:0px;word-spacing:0px;fill:#ffffff;fill-opacity:1;stroke:#ffffff;stroke-width:0.0580456px;stroke-linecap:butt;stroke-linejoin:miter;stroke-opacity:1;-inkscape-stroke:none;stop-color:#000000"
   x="-2.6307509"
   y="13.69998"
   id="text4301"><tspan
     sodipodi:role="line"
     id="tspan4299"
     style="fill:#ffffff;fill-opacity:1;stroke:#ffffff;stroke-width:0.0580456px;stroke-opacity:1"
     x="-2.6307509"
     y="13.69998">CPU</tspan></text>
</g>

 </g>
    </g>
    <g
       id="g10923"
       transform="matrix(0.93380266,0,0,0.93380266,3.0856527,8.4192193)">
      <g
         id="g1334"
         transform="matrix(0.21724465,0,0,-0.21724466,124.28831,73.005767)">
        <g
           id="g1336"
           clip-path="url(#clipPath1340)">
          <g
             id="g1342"
             transform="translate(559.2023,161.3372)">
            <path
               d="m 0,0 h -328.72 c -2.214,0 -4.009,1.795 -4.009,4.009 v 220.97 c 0,2.214 1.795,4.009 4.009,4.009 H 0 c 2.214,0 4.01,-1.795 4.01,-4.009 V 4.009 C 4.01,1.795 2.214,0 0,0"
               style="fill:#1a2e35;fill-opacity:1;fill-rule:nonzero;stroke:none"
               id="path1344" />
          </g>
          <g
             id="g1346"
             transform="translate(353.4209,167.1347)">
            <path
               d="m 0,0 -12.643,-39.18 c -0.767,-2.377 1.005,-4.811 3.502,-4.811 H 91.837 c 2.539,0 4.316,2.511 3.47,4.906 L 81.513,0 Z"
               style="fill:#1a2e35;fill-opacity:1;fill-rule:nonzero;stroke:none"
               id="path1348" />
          </g>
          <g
             id="g1350">
            <g
               id="g1352" />
            <g
               id="g1362">
              <g
                 clip-path="url(#clipPath1356)"
                 opacity="0.300003"
                 id="g1360">
                <path
                   d="M 555.146,196.208 H 234.539 v 187.129 h 320.607 z"
                   style="fill:#000000;fill-opacity:1;fill-rule:nonzero;stroke:none"
                   id="path1358" />
              </g>
            </g>
          </g>
          <path
             d="M 549.216,196.208 H 240.47 v 182.331 h 308.746 z"
             style="fill:#00bfd9;fill-opacity:1;fill-rule:nonzero;stroke:none"
             id="path1364" />
          <g
             id="g1366">
            <g
               id="g1368" />
            <g
               id="g1380">
              <g
                 clip-path="url(#clipPath1372)"
                 opacity="0.300003"
                 id="g1378">
                <g
                   transform="translate(351.9664,161.3372)"
                   id="g1376">
                  <path
                     d="m 0,0 h 85.43 l 3.762,-10.66 H -3.44 Z"
                     style="fill:#000000;fill-opacity:1;fill-rule:nonzero;stroke:none"
                     id="path1374" />
                </g>
              </g>
            </g>
          </g>
          <g
             id="g1382">
            <g
               id="g1384" />
            <g
               id="g1396">
              <g
                 clip-path="url(#clipPath1388)"
                 opacity="0.100006"
                 id="g1394">
                <g
                   transform="translate(234.539,298.7495)"
                   id="g1392">
                  <path
                     d="m 0,0 c 0,0 155.814,-54.173 167.125,-30.956 11.311,23.217 -73.223,44.648 -27.979,66.079 45.243,21.431 181.461,39.29 181.461,39.29 V 23.217 c 0,0 -149.315,5.358 -146.933,-8.93 C 176.055,0 269.518,-27.384 207.011,-53.578 144.504,-79.771 0,-65.484 0,-65.484 Z"
                     style="fill:#ffffff;fill-opacity:1;fill-rule:nonzero;stroke:none"
                     id="path1390" />
                </g>
              </g>
            </g>
          </g>
        </g>
      </g>
      <text
         xml:space="preserve"
         style="font-size:15.1068px;line-height:115%;font-family:sans-serif;-inkscape-font-specification:sans-serif;text-decoration-color:#000000;letter-spacing:0px;word-spacing:0px;clip-rule:evenodd;fill:#fff500;fill-opacity:1;fill-rule:evenodd;stroke:#fffdda;stroke-width:0.944166px;stroke-linecap:butt;stroke-linejoin:miter;stroke-opacity:1;-inkscape-stroke:none;image-rendering:optimizeQuality;shape-rendering:geometricPrecision;text-rendering:geometricPrecision;stop-color:#000000"
         x="193.26497"
         y="16.144962"
         id="text4301-2"><tspan
           sodipodi:role="line"
           id="tspan4299-9"
           style="fill:#fff500;fill-opacity:1;stroke:#fffdda;stroke-width:0.944166px;stroke-opacity:1"
           x="193.26497"
           y="16.144962">hello</tspan></text>
    </g>
  </g>
</svg>
